<svg width="121" height="122" viewBox="0 0 121 122" fill="none" xmlns="http://www.w3.org/2000/svg">
<g clip-path="url(#clip0_61_9263)">
<path d="M60.519 64.0697C62.1937 64.0697 63.555 62.6932 63.555 60.9999C63.555 59.3073 62.1937 57.9308 60.519 57.9308C58.845 57.9308 57.4836 59.3073 57.4836 60.9999C57.4836 62.6932 58.845 64.0697 60.519 64.0697Z" fill="#C56225"/>
<path d="M62.665 51.1656C63.2391 50.5858 63.555 49.8151 63.555 48.9951C63.555 48.175 63.2391 47.4043 62.665 46.8252C61.5196 45.6657 59.5184 45.6657 58.373 46.8252C57.7996 47.4043 57.4836 48.175 57.4836 48.9951C57.4836 49.8151 57.7996 50.5858 58.373 51.1656C58.9648 51.764 59.7416 52.0628 60.519 52.0628C61.2965 52.0628 62.0739 51.764 62.665 51.1656Z" fill="#C56225"/>
<path d="M50.3195 57.9342C51.0963 57.9342 51.8737 57.6353 52.4655 57.0369C53.0389 56.4578 53.3548 55.6871 53.3548 54.867C53.3548 54.047 53.0389 53.2762 52.4655 52.6965C51.2806 51.4997 49.3551 51.5011 48.1728 52.6965C47.5994 53.2762 47.2834 54.047 47.2834 54.867C47.2834 55.6871 47.5994 56.4578 48.1728 57.0369C48.7646 57.6353 49.542 57.9342 50.3195 57.9342Z" fill="#C56225"/>
<path d="M48.1728 69.2881C48.7462 69.8685 49.5085 70.188 50.3195 70.188C51.1298 70.188 51.8921 69.8685 52.4655 69.2881C53.0389 68.709 53.3548 67.9382 53.3548 67.1182C53.3548 66.2982 53.0389 65.5274 52.4655 64.9483C51.3181 63.7862 49.3195 63.7888 48.1728 64.9483C47.5994 65.5274 47.2834 66.2982 47.2834 67.1182C47.2834 67.9382 47.5994 68.709 48.1728 69.2881Z" fill="#C56225"/>
<path d="M58.373 75.1747C58.9457 75.7551 59.708 76.0746 60.519 76.0746C61.33 76.0746 62.0923 75.7551 62.665 75.1747C63.2391 74.5956 63.555 73.8248 63.555 73.0048C63.555 72.1848 63.2391 71.414 62.665 70.8349C61.5196 69.6741 59.5184 69.6741 58.373 70.8349C57.7996 71.414 57.4836 72.1848 57.4836 73.0048C57.4836 73.8248 57.7996 74.5956 58.373 75.1747Z" fill="#C56225"/>
<path d="M68.5397 69.2881C69.1124 69.8685 69.8747 70.188 70.6857 70.188C71.4967 70.188 72.259 69.8685 72.8317 69.2881C73.4057 68.709 73.7217 67.9382 73.7217 67.1182C73.7217 66.2982 73.4057 65.5274 72.8317 64.9483C71.6863 63.7875 69.6851 63.7875 68.5397 64.9483C67.9656 65.5274 67.6497 66.2982 67.6497 67.1182C67.6497 67.9382 67.9656 68.709 68.5397 69.2881Z" fill="#C56225"/>
<path d="M70.6857 57.9362C71.4967 57.9362 72.259 57.6167 72.8317 57.0369C73.4057 56.4579 73.7217 55.6871 73.7217 54.8671C73.7217 54.047 73.4057 53.2763 72.8317 52.6965C71.6494 51.4998 69.722 51.4998 68.5397 52.6965C67.9656 53.2763 67.6497 54.047 67.6497 54.8671C67.6497 55.6871 67.9656 56.4579 68.5397 57.0369C69.1124 57.6167 69.8747 57.9362 70.6857 57.9362Z" fill="#C56225"/>
<path d="M47.7682 43.7954C48.2362 44.0689 48.755 44.208 49.2809 44.208C49.5449 44.208 49.8102 44.1728 50.0715 44.1022C50.8549 43.8899 51.5099 43.382 51.9147 42.6718C52.3203 41.9623 52.4282 41.1349 52.2182 40.3429C52.0082 39.5515 51.5059 38.8892 50.8036 38.4798C49.3547 37.6319 47.4943 38.137 46.6576 39.6027C45.8203 41.0684 46.3186 42.9494 47.7682 43.7954Z" fill="#C56225"/>
<path d="M59.0011 40.6417C59.4784 40.9193 59.9991 41.0517 60.5138 41.0517C61.5638 41.0517 62.5861 40.5006 63.1483 39.5175C63.9843 38.0525 63.4867 36.1715 62.0371 35.3255C60.5889 34.4776 58.7272 34.9827 57.8906 36.4484C57.0532 37.9141 57.5515 39.7951 59.0011 40.6417Z" fill="#C56225"/>
<path d="M39.39 52.0822C39.8666 52.361 40.3879 52.4928 40.9027 52.4928C41.952 52.4928 42.9743 51.9424 43.5359 50.9593C44.3732 49.4936 43.8749 47.6126 42.4253 46.7666C41.7223 46.3546 40.9021 46.2481 40.122 46.4598C39.3386 46.6721 38.6836 47.18 38.2788 47.8902C37.4421 49.3558 37.9404 51.2362 39.39 52.0822Z" fill="#C56225"/>
<path d="M38.9944 63.9366C39.7778 63.7249 40.4328 63.2164 40.8383 62.5055C41.6743 61.0399 41.1753 59.1589 39.7264 58.3135C38.2755 57.4669 36.4172 57.9714 35.5805 59.4371C34.7432 60.9028 35.2415 62.7838 36.691 63.6304C37.1591 63.9033 37.6778 64.0431 38.2038 64.0431C38.4678 64.0431 38.733 64.0071 38.9944 63.9366Z" fill="white"/>
<path d="M39.3901 74.9151C39.8667 75.1933 40.388 75.3251 40.9028 75.3251C41.9521 75.3251 42.9744 74.7753 43.536 73.7915C44.3733 72.3259 43.875 70.4449 42.4254 69.5982C41.7224 69.1882 40.9022 69.0804 40.1221 69.292C39.3387 69.505 38.6837 70.0122 38.2789 70.7231C37.4422 72.1887 37.9412 74.0684 39.3901 74.9151Z" fill="#C56225"/>
<path d="M47.8234 83.3297C48.2908 83.6026 48.8095 83.7424 49.3355 83.7424C49.5994 83.7424 49.8647 83.7064 50.1267 83.6359C50.9094 83.4229 51.5644 82.9157 51.9693 82.2048C52.8066 80.7405 52.3083 78.8595 50.8588 78.0128C49.4092 77.1675 47.5489 77.6694 46.7122 79.1364C46.3067 79.8459 46.1987 80.6739 46.4087 81.466C46.6187 82.2581 47.121 82.9197 47.8234 83.3297Z" fill="#C56225"/>
<path d="M59.0011 86.6257C59.4777 86.9039 59.9991 87.0357 60.5138 87.0357C61.5638 87.0357 62.5861 86.4859 63.1483 85.5022C63.9843 84.0365 63.4867 82.1555 62.0371 81.3088C60.5889 80.4622 58.7272 80.9667 57.8906 82.4324C57.0532 83.898 57.5515 85.779 59.0011 86.6257Z" fill="white"/>
<path d="M70.3421 83.3296C70.8094 83.6025 71.3282 83.7423 71.8548 83.7423C72.1181 83.7423 72.3841 83.7063 72.6461 83.6358C73.4294 83.4228 74.0838 82.9156 74.4893 82.2047C74.8948 81.4952 75.0014 80.6685 74.7921 79.8764C74.5814 79.0844 74.0798 78.4228 73.3768 78.0127C71.9272 77.1661 70.0682 77.6693 69.2309 79.1363C68.3948 80.602 68.8925 82.483 70.3421 83.3296Z" fill="#C56225"/>
<path d="M82.9773 74.1097C83.3828 73.4002 83.4895 72.5721 83.2801 71.7801C83.0695 70.988 82.5679 70.3264 81.8648 69.9164C80.4139 69.0684 78.5562 69.5743 77.7189 71.0399C76.8829 72.5056 77.3805 74.3866 78.8301 75.2332C79.3067 75.5115 79.8281 75.6432 80.3428 75.6432C81.3922 75.6432 82.4151 75.0935 82.9773 74.1097Z" fill="#C56225"/>
<path d="M85.6749 62.5055C86.0804 61.796 86.1884 60.9686 85.9777 60.1772C85.7684 59.3851 85.2668 58.7229 84.5637 58.3135C83.862 57.9035 83.0431 57.7937 82.261 58.0067C81.4777 58.219 80.8233 58.7269 80.4178 59.4371C80.0123 60.1473 79.9043 60.9739 80.115 61.766C80.3243 62.5588 80.8259 63.2204 81.529 63.6304C81.9964 63.9033 82.5151 64.0431 83.0417 64.0431C83.3051 64.0431 83.5697 64.0071 83.8317 63.9366C84.6151 63.7236 85.2694 63.2164 85.6749 62.5055Z" fill="white"/>
<path d="M81.8648 46.7666C81.1631 46.356 80.3468 46.2481 79.5621 46.4598C78.7788 46.6721 78.1244 47.18 77.7189 47.8902C76.8829 49.3552 77.3805 51.2362 78.8301 52.0822C79.3067 52.361 79.8281 52.4935 80.3428 52.4935C81.3922 52.4928 82.4151 51.9424 82.9773 50.9593C83.3828 50.2491 83.4895 49.4217 83.2801 48.6303C83.0695 47.8383 82.5679 47.176 81.8648 46.7666Z" fill="#C56225"/>
<path d="M69.2309 39.6027C68.3948 41.0684 68.8925 42.9494 70.3421 43.7954C70.8094 44.0689 71.3282 44.208 71.8548 44.208C72.1181 44.208 72.3841 44.1728 72.6461 44.1022C73.4294 43.8899 74.0838 43.382 74.4893 42.6718C74.8948 41.9623 75.0014 41.1349 74.7921 40.3429C74.5814 39.5515 74.0798 38.8892 73.3768 38.4798C71.9272 37.6319 70.0682 38.137 69.2309 39.6027Z" fill="#C56225"/>
<path d="M92.3726 58.8301C91.189 60.0268 91.189 61.9731 92.3726 63.1698C92.9453 63.7502 93.7076 64.0697 94.5186 64.0697C95.3296 64.0697 96.0919 63.7502 96.6646 63.1698C97.2386 62.5907 97.5546 61.82 97.5546 60.9999C97.5546 60.1799 97.2386 59.4091 96.6646 58.8301C95.5192 57.6706 93.518 57.6706 92.3726 58.8301Z" fill="white"/>
<path d="M77.6491 93.8796C78.4601 93.8796 79.2224 93.5601 79.7951 92.9796C80.3691 92.4006 80.6851 91.6298 80.6851 90.8098C80.6851 89.9897 80.3691 89.219 79.7951 88.6399C78.6497 87.4791 76.6485 87.4791 75.503 88.6399C74.929 89.219 74.613 89.9897 74.613 90.8098C74.613 91.6298 74.929 92.4006 75.503 92.9796C76.0758 93.5601 76.8381 93.8796 77.6491 93.8796Z" fill="#C56225"/>
<path d="M54.4682 97.9224C55.2457 97.9224 56.0224 97.6229 56.6142 97.0252C57.1876 96.4461 57.5036 95.6753 57.5036 94.8553C57.5036 94.0353 57.1876 93.2645 56.6142 92.6854C55.4688 91.5246 53.4683 91.5246 52.3215 92.6854C51.1379 93.8822 51.1379 95.8284 52.3215 97.0252C52.9133 97.6229 53.6908 97.9224 54.4682 97.9224Z" fill="white"/>
<path d="M26.5317 70.4049C25.3494 71.6017 25.3494 73.5493 26.5317 74.746C27.1235 75.3437 27.901 75.6432 28.6784 75.6432C29.4559 75.6432 30.2326 75.3437 30.8244 74.746C32.0074 73.5493 32.0074 71.6017 30.8244 70.4049C29.6408 69.2095 27.7153 69.2095 26.5317 70.4049Z" fill="white"/>
<path d="M52.3215 24.9747C51.1386 26.1714 51.1386 28.1183 52.3215 29.3151C52.8949 29.8948 53.6572 30.2143 54.4682 30.2143C55.2792 30.2143 56.0415 29.8948 56.6142 29.3151C57.7978 28.1183 57.7978 26.1714 56.6142 24.9747C55.4688 23.8152 53.4683 23.8152 52.3215 24.9747Z" fill="#C56225"/>
<path d="M77.6491 34.2592C78.4601 34.2592 79.2224 33.9397 79.7951 33.36C80.3691 32.7803 80.6851 32.0095 80.6851 31.1901C80.6851 30.3701 80.3691 29.5993 79.7951 29.0196C78.6128 27.8228 76.6853 27.8228 75.503 29.0196C74.929 29.5993 74.613 30.3701 74.613 31.1901C74.613 32.0095 74.929 32.7803 75.503 33.36C76.0758 33.9397 76.8381 34.2592 77.6491 34.2592Z" fill="white"/>
<path d="M86.4268 41.6674C87.2049 41.6674 87.9817 41.3686 88.5741 40.7702C89.7577 39.5741 89.7577 37.6265 88.5741 36.4298C87.3879 35.233 85.4644 35.2357 84.2808 36.4298C83.0972 37.6265 83.0972 39.5741 84.2808 40.7702C84.8732 41.3686 85.65 41.6674 86.4268 41.6674Z" fill="#C56225"/>
<path d="M90.4343 47.2545C89.2507 48.4506 89.2507 50.3982 90.4343 51.5949C91.0255 52.1933 91.8036 52.4921 92.5804 52.4921C93.3584 52.4921 94.1352 52.1933 94.7277 51.5949C95.9113 50.3982 95.9113 48.4506 94.7277 47.2545C93.5796 46.095 91.5798 46.095 90.4343 47.2545Z" fill="#C56225"/>
<path d="M90.4343 74.746C91.0255 75.3437 91.8036 75.6432 92.5803 75.6432C93.3584 75.6432 94.1352 75.3437 94.7277 74.746C95.91 73.5493 95.91 71.6017 94.7277 70.4049C93.5441 69.2108 91.6179 69.2082 90.4343 70.4049C89.252 71.6017 89.252 73.5493 90.4343 74.746Z" fill="white"/>
<path d="M86.4268 85.9721C87.2049 85.9721 87.983 85.6726 88.5741 85.0749C89.7564 83.8781 89.7564 81.9306 88.5741 80.7338C87.3879 79.537 85.4617 79.5397 84.2808 80.7338C83.0985 81.9306 83.0985 83.8781 84.2808 85.0749C84.8732 85.6726 85.65 85.9721 86.4268 85.9721Z" fill="#C56225"/>
<path d="M66.2909 97.9224C67.0677 97.9224 67.8458 97.6229 68.4369 97.0252C69.6205 95.8284 69.6205 93.8822 68.4369 92.6854C67.2915 91.5246 65.2916 91.5246 64.1436 92.6854C62.96 93.8822 62.96 95.8284 64.1436 97.0252C64.736 97.6229 65.5128 97.9224 66.2909 97.9224Z" fill="white"/>
<path d="M34.6147 85.9721C35.3921 85.9721 36.1689 85.6726 36.7607 85.0749C37.9437 83.8781 37.9437 81.9306 36.7607 80.7338C35.5771 79.5384 33.6516 79.5384 32.468 80.7338C31.2857 81.9306 31.2857 83.8781 32.468 85.0749C33.0598 85.6726 33.8373 85.9721 34.6147 85.9721Z" fill="#C56225"/>
<path d="M26.5191 64.0391C27.2965 64.0391 28.074 63.7396 28.6658 63.1419C29.8494 61.9451 29.8494 59.9982 28.6658 58.8014C27.4808 57.604 25.5553 57.6047 24.3731 58.8014C23.1895 59.9982 23.1895 61.9451 24.3731 63.1419C24.9649 63.7396 25.7423 64.0391 26.5191 64.0391Z" fill="white"/>
<path d="M26.5317 51.1656C27.1235 51.764 27.901 52.0628 28.6784 52.0628C29.4559 52.0628 30.2326 51.764 30.8244 51.1656C31.3978 50.5858 31.7138 49.8151 31.7138 48.9951C31.7138 48.175 31.3978 47.4049 30.8244 46.8252C29.6777 45.6657 27.6785 45.6657 26.5317 46.8252C25.3488 48.0213 25.3488 49.9688 26.5317 51.1656Z" fill="#C56225"/>
<path d="M32.468 40.7701C33.0414 41.3499 33.8037 41.6694 34.6147 41.6694C35.4257 41.6694 36.188 41.3499 36.7607 40.7701C37.3341 40.1911 37.6501 39.4203 37.6501 38.6003C37.6501 37.7802 37.3341 37.0095 36.7607 36.4297C35.5771 35.233 33.6516 35.233 32.468 36.4297C31.2851 37.6265 31.2851 39.5741 32.468 40.7701Z" fill="#C56225"/>
<path d="M41.4597 29.0196C40.2761 30.2163 40.2761 32.1632 41.4597 33.36C42.0515 33.9584 42.829 34.2572 43.6064 34.2572C44.3832 34.2572 45.1606 33.9584 45.7524 33.36C46.936 32.1632 46.936 30.2163 45.7524 29.0196C44.5675 27.8228 42.642 27.8241 41.4597 29.0196Z" fill="white"/>
<path d="M43.3891 93.8796C44.2001 93.8796 44.9624 93.5601 45.5351 92.9796C46.1085 92.4006 46.4245 91.6298 46.4245 90.8098C46.4245 89.9897 46.1085 89.219 45.5351 88.6399C44.3897 87.4791 42.3892 87.4791 41.2424 88.6399C40.0588 89.8367 40.0588 91.7829 41.2424 92.9796C41.8158 93.5601 42.5781 93.8796 43.3891 93.8796Z" fill="#C56225"/>
<path d="M66.2909 30.2143C67.1019 30.2143 67.8642 29.8948 68.4369 29.3151C69.6192 28.1183 69.6192 26.1714 68.4369 24.9747C67.2915 23.8152 65.2916 23.8152 64.1436 24.9747C62.9613 26.1714 62.9613 28.1183 64.1436 29.3151C64.7176 29.8948 65.4799 30.2143 66.2909 30.2143Z" fill="#C56225"/>
<path d="M40.0239 16.2672C38.8403 17.464 38.8403 19.4109 40.0239 20.6076C40.6157 21.206 41.3932 21.5048 42.17 21.5048C42.9474 21.5048 43.7248 21.206 44.3166 20.6076C45.5002 19.4109 45.5002 17.464 44.3166 16.2672C43.1337 15.0711 41.2082 15.0698 40.0239 16.2672Z" fill="white"/>
<path d="M29.2307 22.6497C28.0471 23.8465 28.0471 25.7934 29.2307 26.9901C29.8034 27.5699 30.5657 27.8894 31.3767 27.8894C32.1878 27.8894 32.9501 27.5699 33.5234 26.9901C34.7064 25.7934 34.7064 23.8465 33.5234 22.6497C32.3767 21.4902 30.3761 21.4902 29.2307 22.6497Z" fill="white"/>
<path d="M26.0023 33.9184C26.0023 33.0984 25.6863 32.3276 25.113 31.7479C23.9287 30.5511 22.0032 30.5525 20.8203 31.7479C20.2469 32.3276 19.9309 33.0984 19.9309 33.9184C19.9309 34.7385 20.2469 35.5092 20.8203 36.0883C21.4121 36.6867 22.1895 36.9855 22.9669 36.9855C23.7437 36.9855 24.5212 36.6867 25.113 36.0883C25.6863 35.5092 26.0023 34.7385 26.0023 33.9184Z" fill="#C56225"/>
<path d="M17.5696 48.2429C18.3471 48.2429 19.1245 47.944 19.7163 47.3456C20.8999 46.1489 20.8999 44.202 19.7163 43.0052C18.5334 41.8091 16.6079 41.8078 15.4236 43.0052C14.24 44.202 14.24 46.1489 15.4236 47.3456C16.0154 47.944 16.7928 48.2429 17.5696 48.2429Z" fill="#C56225"/>
<path d="M12.7253 55.4255C12.1519 56.0045 11.8359 56.7753 11.8359 57.5953C11.8359 58.4154 12.1519 59.1861 12.7253 59.7659C13.3171 60.3636 14.0945 60.6631 14.8713 60.6631C15.6487 60.6631 16.4262 60.3636 17.018 59.7659C17.5914 59.1861 17.9073 58.4154 17.9073 57.5953C17.9073 56.7753 17.5914 56.0045 17.018 55.4255C15.835 54.2294 13.9095 54.228 12.7253 55.4255Z" fill="white"/>
<path d="M17.8799 67.676C16.6949 66.4792 14.7694 66.4806 13.5872 67.676C12.4042 68.8728 12.4042 70.8203 13.5872 72.0171C14.179 72.6148 14.9564 72.9143 15.7332 72.9143C16.5106 72.9143 17.2881 72.6148 17.8799 72.0171C19.0628 70.8203 19.0628 68.8728 17.8799 67.676Z" fill="white"/>
<path d="M17.4472 79.6302C16.8738 80.2093 16.5579 80.98 16.5579 81.8001C16.5579 82.6201 16.8738 83.3909 17.4472 83.9699C18.0206 84.5503 18.7829 84.8698 19.5932 84.8698C20.4042 84.8698 21.1665 84.5503 21.7399 83.9699C22.3133 83.3909 22.6293 82.6201 22.6293 81.8001C22.6293 80.98 22.3133 80.2093 21.7399 79.6302C20.5932 78.4694 18.594 78.4694 17.4472 79.6302Z" fill="white"/>
<path d="M29.3141 94.6636C30.4977 93.4668 30.4977 91.5206 29.3141 90.3238C28.1305 89.1284 26.205 89.1284 25.0214 90.3238C24.4481 90.9029 24.1321 91.6737 24.1321 92.4937C24.1321 93.3137 24.4481 94.0845 25.0214 94.6636C25.5941 95.244 26.3564 95.5635 27.1675 95.5635C27.9785 95.5635 28.7408 95.244 29.3141 94.6636Z" fill="#C56225"/>
<path d="M38.9201 98.142C37.7734 96.9812 35.7728 96.9812 34.6274 98.142C34.054 98.7211 33.738 99.4919 33.738 100.312C33.738 101.132 34.054 101.903 34.6274 102.482C35.2001 103.062 35.9624 103.382 36.7734 103.382C37.5844 103.382 38.3467 103.062 38.9201 102.482C40.1037 101.285 40.1037 99.3388 38.9201 98.142Z" fill="#C56225"/>
<path d="M45.9605 103.101C44.7775 104.298 44.7775 106.245 45.9605 107.442C46.5523 108.04 47.3297 108.339 48.1065 108.339C48.8839 108.339 49.6614 108.04 50.2532 107.442C51.4361 106.245 51.4361 104.298 50.2532 103.101C49.0682 101.904 47.1427 101.904 45.9605 103.101Z" fill="white"/>
<path d="M58.3731 104.877C57.1901 106.073 57.1901 108.021 58.3731 109.218C58.9649 109.815 59.7416 110.115 60.5191 110.115C61.2965 110.115 62.074 109.815 62.6651 109.218C63.8487 108.021 63.8487 106.073 62.6651 104.877C61.4828 103.681 59.5567 103.681 58.3731 104.877Z" fill="white"/>
<path d="M70.7859 103.101C69.6023 104.298 69.6023 106.245 70.7859 107.442C71.377 108.04 72.1551 108.339 72.9319 108.339C73.7087 108.339 74.4868 108.04 75.0779 107.442C76.2602 106.245 76.2602 104.298 75.0779 103.101C73.8957 101.905 71.9682 101.905 70.7859 103.101Z" fill="white"/>
<path d="M82.0308 98.142C80.8472 99.3388 80.8472 101.285 82.0308 102.482C82.6048 103.062 83.3671 103.382 84.1781 103.382C84.9891 103.382 85.7514 103.062 86.3241 102.482C87.5077 101.285 87.5077 99.3388 86.3241 98.142C85.1787 96.9812 83.1788 96.9812 82.0308 98.142Z" fill="#C56225"/>
<path d="M91.63 89.9564C91.056 90.5355 90.74 91.3062 90.74 92.1263C90.74 92.9463 91.056 93.7171 91.63 94.2975C92.2211 94.8952 92.9992 95.1947 93.776 95.1947C94.5528 95.1947 95.3309 94.8952 95.922 94.2975C96.4961 93.7171 96.812 92.9463 96.812 92.1263C96.812 91.3062 96.4961 90.5355 95.922 89.9564C94.7371 88.761 92.8123 88.761 91.63 89.9564Z" fill="#C56225"/>
<path d="M100.995 85.3491C101.771 85.3491 102.55 85.0495 103.141 84.4518C104.324 83.2551 104.324 81.3075 103.141 80.1107C101.958 78.9153 100.031 78.9153 98.8486 80.1107C97.665 81.3075 97.665 83.2551 98.8486 84.4518C99.4398 85.0495 100.218 85.3491 100.995 85.3491Z" fill="white"/>
<path d="M107.512 68.1059C106.33 66.9105 104.402 66.9105 103.22 68.1059C102.036 69.3027 102.036 71.2502 103.22 72.447C103.811 73.0447 104.589 73.3442 105.366 73.3442C106.143 73.3442 106.921 73.0447 107.512 72.447C108.695 71.2502 108.695 69.3027 107.512 68.1059Z" fill="white"/>
<path d="M104.02 55.4255C102.837 56.6216 102.837 58.5691 104.02 59.7659C104.611 60.3643 105.39 60.6631 106.166 60.6631C106.944 60.6631 107.721 60.3643 108.314 59.7659C109.497 58.5691 109.497 56.6216 108.314 55.4255C107.166 54.266 105.166 54.266 104.02 55.4255Z" fill="white"/>
<path d="M101.546 43.0052C100.364 44.202 100.364 46.1489 101.546 47.3456C102.139 47.944 102.916 48.2429 103.692 48.2429C104.471 48.2429 105.249 47.944 105.84 47.3456C107.022 46.1489 107.022 44.202 105.84 43.0052C104.655 41.8078 102.731 41.8091 101.546 43.0052Z" fill="#C56225"/>
<path d="M97.9771 36.9875C98.7881 36.9875 99.5504 36.6681 100.124 36.0883C101.308 34.8922 101.308 32.9447 100.124 31.7479C98.9408 30.5518 97.0147 30.5518 95.8311 31.7479C94.6475 32.9447 94.6475 34.8922 95.8311 36.0883C96.4038 36.6681 97.1661 36.9875 97.9771 36.9875Z" fill="#C56225"/>
<path d="M89.1256 27.8894C89.9366 27.8894 90.6989 27.5699 91.2717 26.9901C91.8457 26.4104 92.1617 25.6396 92.1617 24.8202C92.1617 24.0002 91.8457 23.2294 91.2717 22.6497C90.1262 21.4902 88.125 21.4902 86.9796 22.6497C86.4056 23.2294 86.0896 24.0002 86.0896 24.8202C86.0896 25.6396 86.4056 26.4104 86.9796 26.9901C87.5523 27.5699 88.3146 27.8894 89.1256 27.8894Z" fill="white"/>
<path d="M78.7801 21.5048C79.5582 21.5048 80.3362 21.206 80.9274 20.6076C82.1097 19.4109 82.1097 17.464 80.9274 16.2672C79.7412 15.0698 77.8176 15.0711 76.634 16.2672C75.4517 17.464 75.4517 19.4109 76.634 20.6076C77.2265 21.206 78.0033 21.5048 78.7801 21.5048Z" fill="white"/>
<path d="M66.9955 18.0204C67.7723 18.0204 68.5504 17.7216 69.1415 17.1232C69.7156 16.5434 70.0315 15.7727 70.0315 14.9526C70.0315 14.1326 69.7156 13.3618 69.1415 12.7828C67.9961 11.6233 65.9949 11.6233 64.8495 12.7828C64.2755 13.3618 63.9595 14.1326 63.9595 14.9526C63.9595 15.7727 64.2755 16.5434 64.8495 17.1232C65.4406 17.7216 66.2187 18.0204 66.9955 18.0204Z" fill="#C56225"/>
<path d="M54.2226 18.0204C55.0001 18.0204 55.7775 17.7209 56.3693 17.1232C56.9427 16.5434 57.2587 15.7727 57.2587 14.9526C57.2587 14.1326 56.9427 13.3618 56.3693 12.7828C55.1857 11.586 53.2602 11.586 52.0766 12.7828C51.5032 13.3618 51.1873 14.1326 51.1873 14.9526C51.1873 15.7727 51.5032 16.5434 52.0766 17.1232C52.6684 17.7209 53.4458 18.0204 54.2226 18.0204Z" fill="#C56225"/>
<path d="M41.3437 8.86367C42.1212 8.86367 42.8979 8.56481 43.4897 7.96643C44.0631 7.38669 44.3791 6.61592 44.3791 5.79589C44.3791 4.97587 44.0631 4.20576 43.4897 3.62602C42.343 2.46654 40.3431 2.46654 39.1977 3.62602C38.6243 4.2051 38.3083 4.97587 38.3083 5.79589C38.3083 6.61592 38.6243 7.38669 39.1977 7.96643C39.7895 8.56481 40.5663 8.86367 41.3437 8.86367Z" fill="white"/>
<path d="M29.8659 14.4129C30.677 14.4129 31.4393 14.0934 32.0126 13.5136C33.1956 12.3175 33.1956 10.37 32.0126 9.1732C30.829 7.97644 28.9035 7.97644 27.7199 9.1732C27.1465 9.75295 26.8306 10.5237 26.8306 11.3437C26.8306 12.1638 27.1465 12.9345 27.7199 13.5136C28.2926 14.0934 29.0549 14.4129 29.8659 14.4129Z" fill="white"/>
<path d="M19.5932 22.8148C20.3707 22.8148 21.1481 22.5153 21.7399 21.9175C22.3133 21.3378 22.6293 20.567 22.6293 19.747C22.6293 18.927 22.3133 18.1562 21.7399 17.5771C20.557 16.381 18.6315 16.3797 17.4472 17.5771C16.8738 18.1562 16.5579 18.927 16.5579 19.747C16.5579 20.567 16.8738 21.3378 17.4472 21.9175C18.039 22.5153 18.8165 22.8148 19.5932 22.8148Z" fill="white"/>
<path d="M11.4089 32.9426C12.2199 32.9426 12.9822 32.6231 13.5549 32.0434C14.7385 30.8466 14.7385 28.8997 13.5549 27.703C12.4095 26.5435 10.409 26.5435 9.26221 27.703C8.07926 28.8997 8.07926 30.8466 9.26221 32.0434C9.83558 32.6231 10.5979 32.9426 11.4089 32.9426Z" fill="#C56225"/>
<path d="M5.92191 44.8436C6.69935 44.8436 7.47679 44.5448 8.06859 43.9464C9.25154 42.7497 9.25154 40.8028 8.06859 39.606C6.92185 38.4465 4.92131 38.4465 3.77589 39.606C2.59228 40.8028 2.59228 42.7497 3.77589 43.9464C4.36769 44.5448 5.14447 44.8436 5.92191 44.8436Z" fill="#C56225"/>
<path d="M3.22367 57.5194C4.00111 57.5194 4.77855 57.2206 5.37035 56.6222C6.5533 55.4254 6.5533 53.4785 5.37035 52.2818C4.22361 51.1223 2.22307 51.1223 1.07764 52.2818C-0.10596 53.4785 -0.10596 55.4254 1.07764 56.6222C1.66945 57.2206 2.44623 57.5194 3.22367 57.5194Z" fill="white"/>
<path d="M5.37029 69.5356C6.55389 68.3389 6.55389 66.3926 5.37029 65.1959C4.18668 64.0005 2.26119 64.0005 1.07758 65.1959C0.504211 65.775 0.188232 66.5457 0.188232 67.3658C0.188232 68.1858 0.504211 68.9566 1.07758 69.5356C1.65029 70.116 2.41259 70.4355 3.22361 70.4355C4.03462 70.4355 4.79692 70.116 5.37029 69.5356Z" fill="white"/>
<path d="M52.0767 116.762C50.8937 117.958 50.8937 119.906 52.0767 121.103C52.6685 121.7 53.4459 122 54.2227 122C55.0001 122 55.7776 121.7 56.3694 121.103C57.5523 119.906 57.5523 117.958 56.3694 116.762C55.1851 115.565 53.2596 115.566 52.0767 116.762Z" fill="white"/>
<path d="M64.8494 116.762C63.6658 117.958 63.6658 119.906 64.8494 121.103C65.4405 121.7 66.2186 122 66.9954 122C67.7722 122 68.5503 121.7 69.1414 121.103C70.325 119.906 70.325 117.958 69.1414 116.762C67.9591 115.566 66.0317 115.566 64.8494 116.762Z" fill="white"/>
<path d="M77.8269 113.483C76.6433 114.681 76.6433 116.629 77.8269 117.824C78.4194 118.422 79.1962 118.721 79.9743 118.721C80.751 118.721 81.5291 118.422 82.1203 117.824C83.3039 116.629 83.3039 114.681 82.1203 113.483C80.9367 112.286 79.0105 112.289 77.8269 113.483Z" fill="white"/>
<path d="M88.9309 108.026C87.7486 109.223 87.7486 111.171 88.9309 112.367C89.5234 112.965 90.3001 113.265 91.0769 113.265C91.855 113.265 92.6331 112.965 93.2243 112.367C94.4066 111.171 94.4066 109.223 93.2243 108.026C92.038 106.83 90.1119 106.832 88.9309 108.026Z" fill="#C56225"/>
<path d="M99.2542 99.7262C98.0706 100.922 98.0706 102.869 99.2542 104.067C99.8466 104.665 100.623 104.965 101.4 104.965C102.178 104.965 102.956 104.665 103.548 104.067C104.731 102.869 104.731 100.922 103.548 99.7262C102.361 98.5295 100.438 98.5321 99.2542 99.7262Z" fill="#C56225"/>
<path d="M107.483 89.9564C106.299 91.1518 106.299 93.0994 107.483 94.2975C108.075 94.8952 108.852 95.1947 109.629 95.1947C110.407 95.1947 111.185 94.8952 111.776 94.2975C112.96 93.0994 112.96 91.1518 111.776 89.9564C110.59 88.7596 108.666 88.7623 107.483 89.9564Z" fill="white"/>
<path d="M112.97 78.0061C112.396 78.5852 112.08 79.356 112.08 80.176C112.08 80.996 112.396 81.7668 112.97 82.3459C113.543 82.9263 114.305 83.2458 115.116 83.2458C115.927 83.2458 116.69 82.9263 117.262 82.3459C117.836 81.7668 118.152 80.996 118.152 80.176C118.152 79.356 117.836 78.5852 117.262 78.0061C116.117 76.8453 114.116 76.8453 112.97 78.0061Z" fill="white"/>
<path d="M119.961 65.3783C118.776 64.1815 116.853 64.1789 115.668 65.3783C114.484 66.5751 114.484 68.5213 115.668 69.718C116.26 70.3171 117.037 70.6153 117.814 70.6153C118.592 70.6153 119.369 70.3171 119.961 69.718C121.145 68.5213 121.145 66.5751 119.961 65.3783Z" fill="white"/>
<path d="M115.668 52.2818C114.486 53.4785 114.486 55.4254 115.668 56.6222C116.26 57.2199 117.037 57.5188 117.814 57.5188C118.592 57.5188 119.369 57.2199 119.961 56.6222C121.144 55.4254 121.144 53.4785 119.961 52.2818C118.776 51.0844 116.853 51.0857 115.668 52.2818Z" fill="white"/>
<path d="M112.97 43.9464C113.561 44.5448 114.34 44.8436 115.116 44.8436C115.893 44.8436 116.671 44.5448 117.262 43.9464C117.836 43.3667 118.152 42.5959 118.152 41.7759C118.152 40.9565 117.836 40.1857 117.262 39.606C116.117 38.4465 114.116 38.4465 112.97 39.606C112.396 40.1857 112.08 40.9565 112.08 41.7759C112.08 42.5959 112.396 43.3667 112.97 43.9464Z" fill="#C56225"/>
<path d="M109.089 32.9406C109.867 32.9406 110.644 32.6418 111.236 32.0434C112.419 30.8466 112.419 28.8997 111.236 27.703C110.05 26.5049 108.124 26.5076 106.943 27.703C105.761 28.8997 105.761 30.8466 106.943 32.0434C107.536 32.6418 108.312 32.9406 109.089 32.9406Z" fill="#C56225"/>
<path d="M101.4 23.1416C102.178 23.1416 102.955 22.8427 103.548 22.2444C104.731 21.0483 104.731 19.1007 103.548 17.904C102.361 16.7079 100.438 16.7092 99.2542 17.904C98.0706 19.1007 98.0706 21.0483 99.2542 22.2444C99.8466 22.8427 100.623 23.1416 101.4 23.1416Z" fill="white"/>
<path d="M91.0769 14.4108C91.855 14.4108 92.6318 14.112 93.2243 13.5136C94.4079 12.3175 94.4079 10.3699 93.2243 9.17318C92.038 7.97709 90.1145 7.97842 88.9309 9.17318C87.7473 10.3699 87.7473 12.3175 88.9309 13.5136C89.5234 14.112 90.3002 14.4108 91.0769 14.4108Z" fill="white"/>
<path d="M79.3935 8.86367C80.1702 8.86367 80.9483 8.56481 81.5395 7.96643C82.1135 7.38669 82.4295 6.61592 82.4295 5.79589C82.4295 4.97587 82.1135 4.2051 81.5395 3.62602C80.3941 2.46654 78.3929 2.46654 77.2474 3.62602C76.6734 4.2051 76.3574 4.97587 76.3574 5.79589C76.3574 6.61592 76.6734 7.38669 77.2474 7.96643C77.8386 8.56481 78.6167 8.86367 79.3935 8.86367Z" fill="white"/>
<path d="M66.9955 6.1354C67.7723 6.1354 68.5504 5.83655 69.1415 5.23817C69.7156 4.65842 70.0315 3.88765 70.0315 3.06763C70.0315 2.2476 69.7156 1.47683 69.1415 0.897751C67.9961 -0.261734 65.9949 -0.261734 64.8495 0.897751C64.2755 1.47683 63.9595 2.2476 63.9595 3.06763C63.9595 3.88765 64.2755 4.65843 64.8495 5.23817C65.4406 5.83655 66.2187 6.1354 66.9955 6.1354Z" fill="#C56225"/>
<path d="M54.2226 6.1354C55.0001 6.1354 55.7775 5.83588 56.3693 5.23817C56.9427 4.65842 57.2587 3.88765 57.2587 3.06763C57.2587 2.2476 56.9427 1.47683 56.3693 0.897752C55.1857 -0.298341 53.2602 -0.299672 52.0766 0.897752C51.5032 1.47683 51.1873 2.2476 51.1873 3.06763C51.1873 3.88765 51.5032 4.65842 52.0766 5.23817C52.6684 5.83588 53.4458 6.1354 54.2226 6.1354Z" fill="#C56225"/>
<path d="M39.1977 114.034C38.6243 114.613 38.3083 115.384 38.3083 116.204C38.3083 117.024 38.6243 117.795 39.1977 118.374C39.7704 118.954 40.5327 119.274 41.3437 119.274C42.1547 119.274 42.917 118.954 43.4897 118.374C44.0631 117.795 44.3791 117.024 44.3791 116.204C44.3791 115.384 44.0631 114.613 43.4897 114.034C42.3443 112.873 40.3431 112.873 39.1977 114.034Z" fill="white"/>
<path d="M27.72 108.026C26.537 109.223 26.537 111.171 27.72 112.367C28.3118 112.965 29.0886 113.265 29.866 113.265C30.6434 113.265 31.4209 112.965 32.0127 112.367C33.195 111.171 33.195 109.223 32.0127 108.026C30.8291 106.831 28.9036 106.831 27.72 108.026Z" fill="#C56225"/>
<path d="M17.4473 100.223C16.2643 101.42 16.2643 103.367 17.4473 104.564C18.0391 105.162 18.8165 105.461 19.5933 105.461C20.3707 105.461 21.1482 105.162 21.74 104.564C22.9229 103.367 22.9229 101.42 21.74 100.223C20.5551 99.026 18.6296 99.0273 17.4473 100.223Z" fill="#C56225"/>
<path d="M9.26221 89.9564C8.07926 91.1518 8.07926 93.0994 9.26221 94.2975C9.85401 94.8952 10.6315 95.1947 11.4089 95.1947C12.1863 95.1947 12.9631 94.8952 13.5549 94.2975C14.1283 93.7171 14.4443 92.9463 14.4443 92.1263C14.4443 91.3062 14.1283 90.5355 13.5549 89.9564C12.3713 88.761 10.4458 88.761 9.26221 89.9564Z" fill="white"/>
<path d="M8.06853 78.0061C6.92179 76.8453 4.92125 76.8453 3.77582 78.0061C3.20245 78.5852 2.88647 79.356 2.88647 80.176C2.88647 80.996 3.20245 81.7668 3.77582 82.3459C4.34854 82.9263 5.11084 83.2458 5.92185 83.2458C6.73286 83.2458 7.49516 82.9263 8.06853 82.3459C9.25213 81.1491 9.25213 79.2029 8.06853 78.0061Z" fill="white"/>
</g>
<defs>
<clipPath id="clip0_61_9263">
<rect width="120.849" height="122" fill="white"/>
</clipPath>
</defs>
</svg>
