<svg width="188" height="143" viewBox="0 0 188 143" fill="none" xmlns="http://www.w3.org/2000/svg">
<path d="M73.4387 83.3328C69.009 83.3328 65.0891 81.5046 64.509 77.1453H68.4114C69.0618 79.4304 71.5051 80.1511 73.6145 80.1511C75.4778 80.1511 77.8508 79.6238 77.8508 77.7253C77.8508 76.0027 76.2336 75.5281 74.3176 75.1062L70.802 74.3152C67.9719 73.7 65.2649 72.2234 65.2649 68.9714C65.2649 64.9812 68.8333 63.1003 73.2102 63.1003C77.4641 63.1003 80.9797 64.946 81.4192 69.1472H77.5344C77.1477 67.0906 75.3899 66.282 73.1575 66.282C71.4348 66.282 69.2375 66.8972 69.2375 68.7429C69.2375 69.9207 70.1516 70.5183 71.9973 70.905L75.8118 71.696C79.5911 72.4871 81.9465 73.9988 81.9465 77.321C81.9465 81.4167 78.3079 83.3328 73.4387 83.3328ZM88.9173 82.9109H84.6458V63.4695H88.9173V82.9109ZM84.1185 58.3718C84.1185 56.8601 85.1732 55.8582 86.7552 55.8582C88.4251 55.8582 89.4798 56.8601 89.4798 58.3718C89.4798 59.9539 88.4251 60.9734 86.7552 60.9734C85.1732 60.9734 84.1185 59.9539 84.1185 58.3718ZM92.6186 82.9109V63.4695H96.8725C96.8725 65.8425 97.0307 65.7019 96.0639 67.9167L96.7143 68.198C98.1557 64.8757 99.8959 63.0828 103.605 63.0828C107.806 63.0828 110.988 65.1042 110.988 71.116V82.9109H106.734V71.2039C106.734 68.6375 105.275 66.5984 102.269 66.5984C98.894 66.5984 96.8725 69.2703 96.8725 71.8367V82.9109H92.6186ZM129.068 68.0574C128.013 65.5085 128.277 64.9988 128.277 63.4695H132.531V83.2976C132.531 88.2898 128.734 91.4363 123.267 91.4539C118.908 91.4714 115.005 89.573 114.267 85.1609H118.609C119.154 87.0593 121.228 88.0437 123.408 88.0437C126.044 88.0437 127.925 86.4441 128.224 83.9656C128.435 82.2605 128.365 80.0457 129.015 78.4636L128.382 78.1824C127.714 79.7644 126.537 81.821 124.99 82.5769C124.023 83.0515 122.951 83.3152 121.878 83.3152C116.886 83.3152 113.599 79.2546 113.599 73.1902C113.599 67.1785 116.921 63.0828 121.896 63.0828C122.88 63.0828 123.917 63.3113 124.884 63.7507C126.501 64.5066 127.732 66.6687 128.435 68.321L129.068 68.0574ZM117.994 73.155C117.994 76.6355 119.769 79.7117 123.179 79.7117C126.572 79.7117 128.259 76.6179 128.259 73.155C128.259 69.6921 126.572 66.616 123.179 66.616C119.787 66.616 117.994 69.6746 117.994 73.155ZM150.189 82.9109C150.189 80.6785 150.101 80.5378 151.015 78.4636L150.365 78.1824C148.888 81.5222 147.113 83.2976 143.404 83.2976C139.238 83.2976 136.074 81.2761 136.074 75.2644V63.4695H140.345V75.1765C140.345 77.7429 141.787 79.6414 144.793 79.6414C148.15 79.6414 150.189 77.2507 150.189 74.6843V63.4695H154.461V82.9109H150.189ZM158.232 82.9109V56.5437H162.504V82.9109H158.232ZM173.781 74.0164C171.355 74.0164 169.492 74.8777 169.474 77.0222C169.457 79.1843 171.338 80.0808 172.972 80.0808C175.75 80.0808 178.843 78.1472 178.843 75.1062V74.0164H173.781ZM185.453 82.946L182.974 82.9285C180.39 82.9285 179.283 81.2585 179.353 78.4109L178.65 78.3933C178.369 81.9089 175.082 83.3328 172.181 83.3328C168.349 83.3328 165.291 81.1531 165.291 77.2683C165.291 73.4187 168.525 71.1511 173.342 71.1511H177.613C178.597 71.1511 178.879 70.4656 178.879 69.5867C178.879 67.196 176.646 66.4578 174.625 66.4578C172.269 66.4578 170.652 67.3191 170.511 69.3582H166.31C166.416 65.5437 169.967 63.1531 174.853 63.1531C179.775 63.1531 183.15 65.1746 183.15 69.3582V78.0945C183.15 79.4304 184.556 79.2722 185.453 79.2722V82.946Z" fill="#09090B"/>
<path d="M73.9327 73.7258C75.3411 72.3676 75.3697 70.1058 73.9964 68.6816C72.6236 67.2581 70.3623 67.2045 68.9538 68.5627C67.5459 69.9204 67.5173 72.1822 68.8901 73.6058C70.2634 75.0299 72.5247 75.0835 73.9327 73.7258Z" fill="#C56225" fill-opacity="0.1"/>
<path d="M65.2719 61.1324C65.2844 60.1793 64.9251 59.2747 64.26 58.5851C63.5949 57.8954 62.7041 57.5034 61.7516 57.482C59.8479 57.4358 58.1648 59.0588 58.1418 60.963C58.1293 61.915 58.4886 62.8195 59.1537 63.5092C59.8188 64.1989 60.7096 64.5909 61.6621 64.6134C62.6451 64.6367 63.5408 64.2581 64.1947 63.6275C64.8485 62.997 65.26 62.1151 65.2719 61.1324Z" fill="#C56225" fill-opacity="0.1"/>
<path d="M60.3783 76.8377C61.0316 76.2077 61.4431 75.3258 61.4555 74.3426C61.4681 73.3906 61.1087 72.486 60.4436 71.7964C59.7785 71.1067 58.8877 70.7147 57.9352 70.6921C55.9681 70.6466 54.3497 72.2094 54.3249 74.1737C54.3129 75.1263 54.6723 76.0308 55.3373 76.7205C56.0024 77.4102 56.8933 77.8022 57.8451 77.8242C58.8282 77.8474 59.7244 77.4683 60.3783 76.8377Z" fill="#C56225" fill-opacity="0.1"/>
<path d="M67.7813 88.1278C68.7342 88.151 69.6345 87.8014 70.3166 87.1437C70.9981 86.4864 71.3801 85.5995 71.3916 84.6463C71.4042 83.6943 71.0448 82.7897 70.3797 82.1001C69.7147 81.4104 68.8238 81.0184 67.8719 80.9964C65.9644 80.9496 64.2856 82.5727 64.2616 84.4779C64.249 85.43 64.6084 86.3345 65.2734 87.0242C65.9385 87.7139 66.8294 88.1058 67.7813 88.1278Z" fill="#C56225" fill-opacity="0.1"/>
<path d="M81.1343 84.806C82.0867 84.8297 82.9869 84.4801 83.669 83.8223C84.3511 83.1646 84.7331 82.2776 84.7441 81.325C84.7572 80.3724 84.3978 79.4679 83.7327 78.7782C83.0677 78.0885 82.1768 77.6966 81.2244 77.6751C79.3196 77.6278 77.6365 79.2508 77.6146 81.1561C77.602 82.1081 77.9614 83.0127 78.6265 83.7023C79.2915 84.392 80.1824 84.784 81.1343 84.806Z" fill="#C56225" fill-opacity="0.1"/>
<path d="M84.9106 71.6096C85.863 71.6333 86.7632 71.2837 87.4453 70.626C88.1274 69.9682 88.5094 69.0812 88.5204 68.1286C88.5335 67.176 88.1741 66.2715 87.509 65.5818C86.844 64.8921 85.9531 64.5002 85.0007 64.4787C83.0958 64.4314 81.4128 66.0544 81.3909 67.9597C81.3777 68.9123 81.7371 69.8168 82.4022 70.5065C83.0673 71.1962 83.9581 71.5881 84.9106 71.6096Z" fill="#C56225" fill-opacity="0.1"/>
<path d="M77.5087 60.3217C78.1908 59.6639 78.5728 58.777 78.5842 57.8249C78.5974 56.8723 78.238 55.9678 77.5729 55.2781C76.9079 54.5885 76.017 54.1965 75.064 54.1744C73.099 54.1268 71.478 55.69 71.4542 57.6555C71.4416 58.6086 71.801 59.5131 72.4661 60.2028C73.1312 60.8925 74.022 61.2845 74.9745 61.3059C75.9263 61.329 76.8266 60.9795 77.5087 60.3217Z" fill="#C56225" fill-opacity="0.1"/>
<path d="M46.7653 67.0158C47.3808 66.8663 47.9299 66.5626 48.3722 66.136C48.5943 65.9219 48.7888 65.6771 48.9513 65.4058C49.438 64.5919 49.577 63.6335 49.3414 62.7079C49.107 61.7822 48.5268 60.9988 47.7078 60.503C46.8893 60.0077 45.9298 59.8581 45.007 60.0835C43.1007 60.5454 41.9458 62.4791 42.4309 64.3903C42.9153 66.3021 44.86 67.48 46.7653 67.0158Z" fill="#C56225" fill-opacity="0.1"/>
<path d="M53.655 55.2531C54.2815 55.0994 54.8268 54.7885 55.2598 54.371C56.1429 53.5195 56.5557 52.2268 56.2312 50.944C55.7462 49.0339 53.802 47.8555 51.8968 48.3196C49.991 48.781 48.835 50.7157 49.32 52.627C49.8045 54.5388 51.7492 55.7166 53.655 55.2531Z" fill="#C56225" fill-opacity="0.1"/>
<path d="M46.4399 80.7802C47.0669 80.6283 47.6123 80.3163 48.0452 79.8987C48.9277 79.0477 49.3411 77.7556 49.016 76.4734C48.5316 74.5616 46.5869 73.3837 44.6817 73.8479C43.7562 74.0716 42.98 74.6472 42.4956 75.4579C42.0089 76.2718 41.87 77.2302 42.1055 78.1558C42.5905 80.0671 44.5346 81.2444 46.4399 80.7802Z" fill="#C56225" fill-opacity="0.1"/>
<path d="M55.7215 91.0712C56.2087 90.2578 56.3471 89.2989 56.1116 88.3722C55.6261 86.4614 53.6808 85.2841 51.7767 85.7483C49.8698 86.2129 48.716 88.1444 49.201 90.0557C49.6855 91.9675 51.6302 93.1453 53.536 92.6818C54.1509 92.5317 54.7006 92.2285 55.1429 91.8019C55.365 91.5879 55.5589 91.3425 55.7215 91.0712Z" fill="#393939" fill-opacity="0.1"/>
<path d="M64.9582 99.9837C65.5847 99.8311 66.1301 99.5191 66.563 99.1016C67.4455 98.2506 67.8595 96.959 67.5339 95.6762C67.0494 93.7644 65.1047 92.5866 63.1989 93.0502C62.2751 93.2755 61.4978 93.8501 61.0134 94.6608C60.5273 95.4752 60.3878 96.433 60.6238 97.3592C61.1088 99.2705 63.053 100.447 64.9582 99.9837Z" fill="#C56225" fill-opacity="0.1"/>
<path d="M78.8755 100.221C79.49 100.071 80.0396 99.7682 80.4819 99.3416C80.704 99.1275 80.8979 98.8821 81.0611 98.6103C81.5466 97.7964 81.6861 96.8386 81.4501 95.9124C80.9667 94.0017 79.022 92.8238 77.1162 93.2874C75.2115 93.7521 74.0539 95.683 74.54 97.5954C74.7745 98.521 75.3552 99.305 76.1742 99.8008C76.9932 100.297 77.9523 100.446 78.8755 100.221Z" fill="#C56225" fill-opacity="0.1"/>
<path d="M90.9497 93.9275C91.5762 93.7749 92.1216 93.4629 92.5545 93.0454C93.4376 92.1939 93.8515 90.9023 93.5264 89.619C93.0409 87.7083 91.0968 86.5299 89.191 86.9935C87.2863 87.456 86.1297 89.3902 86.6148 91.3014C87.0992 93.2132 89.0439 94.3911 90.9497 93.9275Z" fill="#393939" fill-opacity="0.1"/>
<path d="M97.8147 81.9574C98.4291 81.8078 98.9788 81.5047 99.4217 81.0775C99.6431 80.864 99.8377 80.6181 100.001 80.3462C100.487 79.5318 100.626 78.5745 100.39 77.6478C100.156 76.7221 99.5752 75.9404 98.7567 75.444C97.9372 74.9487 96.9787 74.7991 96.0549 75.0244C94.1491 75.488 92.9937 77.4189 93.4792 79.3318C93.9648 81.2426 95.9089 82.4209 97.8147 81.9574Z" fill="#C56225" fill-opacity="0.1"/>
<path d="M100.964 63.9554C100.729 63.0298 100.147 62.2469 99.329 61.7505C98.5094 61.2552 97.5509 61.1056 96.6271 61.3309C94.7191 61.7945 93.567 63.7266 94.0515 65.6384C94.537 67.5491 96.4812 68.7275 98.387 68.2639C99.0134 68.1113 99.5588 67.7993 99.9918 67.3818C100.874 66.5308 101.289 65.2387 100.964 63.9554Z" fill="#C56225" fill-opacity="0.1"/>
<path d="M93.8212 52.0079C93.5867 51.0823 93.0065 50.2989 92.1875 49.8041C91.369 49.3077 90.41 49.1576 89.4867 49.3835C88.564 49.6078 87.7862 50.1796 87.3012 50.993C86.8146 51.8069 86.6761 52.7647 86.9111 53.6909C87.1461 54.6171 87.7257 55.3999 88.5453 55.8953C89.3643 56.3922 90.3228 56.5418 91.2466 56.3165C91.861 56.1669 92.4107 55.8638 92.8536 55.4366C93.075 55.2231 93.2684 54.9782 93.4316 54.7064C93.9177 53.8919 94.0566 52.9347 93.8212 52.0079Z" fill="#393939" fill-opacity="0.1"/>
<path d="M77.8518 41.8611C76.9285 42.0848 76.1546 42.6561 75.6663 43.4706C75.1796 44.2845 75.0412 45.2423 75.2762 46.1685C75.7612 48.0786 77.7053 49.257 79.6106 48.7929C80.2376 48.6409 80.7835 48.3295 81.2165 47.9119C82.0984 47.0604 82.5124 45.7677 82.1879 44.485C81.9529 43.5588 81.3716 42.7764 80.5537 42.2806C79.7341 41.7853 78.7751 41.6351 77.8518 41.8611Z" fill="#C56225" fill-opacity="0.1"/>
<path d="M61.416 46.0825C61.9016 47.9932 63.8457 49.1716 65.751 48.7074C66.3659 48.5584 66.915 48.2547 67.3579 47.8276C67.5794 47.6141 67.7745 47.3687 67.9376 47.0969C68.4242 46.2829 68.5627 45.3251 68.3277 44.3989C68.0933 43.4733 67.512 42.691 66.6935 42.1946C65.8745 41.6998 64.9155 41.5497 63.9922 41.7756C62.0853 42.2381 60.9315 44.1707 61.416 46.0825Z" fill="#C56225" fill-opacity="0.1"/>
<path d="M96.473 43.4848C96.4482 45.4513 98.0266 47.0882 99.9927 47.1347C100.945 47.1584 101.845 46.8088 102.527 46.1511C103.21 45.4933 103.592 44.6064 103.602 43.6537C103.616 42.7012 103.256 41.7966 102.591 41.107C101.926 40.4173 101.035 40.0253 100.083 40.0038C98.1791 39.9576 96.496 41.5807 96.473 43.4848Z" fill="#393939" fill-opacity="0.1"/>
<path d="M112.517 84.904C113.199 84.2462 113.581 83.3593 113.592 82.4066C113.605 81.454 113.245 80.5495 112.58 79.8598C111.915 79.1702 111.024 78.7782 110.072 78.7567C108.167 78.7094 106.484 80.3324 106.462 82.2377C106.449 83.1903 106.808 84.0948 107.473 84.7845C108.138 85.4742 109.029 85.8662 109.982 85.8876C110.934 85.9113 111.834 85.5617 112.517 84.904Z" fill="#C56225" fill-opacity="0.1"/>
<path d="M96.2993 107.105C96.9531 106.474 97.3635 105.592 97.3765 104.61C97.3891 103.658 97.0297 102.753 96.3646 102.063C95.6995 101.374 94.8087 100.982 93.8568 100.96C91.952 100.913 90.2694 102.535 90.2465 104.441C90.2216 106.408 91.8001 108.045 93.7662 108.091C94.7487 108.114 95.6454 107.735 96.2993 107.105Z" fill="#393939" fill-opacity="0.1"/>
<path d="M50.4859 106.619C50.4622 108.584 52.0417 110.222 54.0067 110.27C54.9892 110.293 55.886 109.914 56.5398 109.284C57.1937 108.653 57.6041 107.771 57.617 106.789C57.6413 104.823 56.0618 103.185 54.0963 103.138C52.1313 103.092 50.5118 104.654 50.4859 106.619Z" fill="#393939" fill-opacity="0.1"/>
<path d="M35.3306 47.4939C35.3063 49.4599 36.8853 51.0973 38.8508 51.1444C39.8032 51.167 40.7035 50.8174 41.3856 50.1596C42.0677 49.5019 42.4497 48.6149 42.4612 47.6628C42.486 45.6964 40.907 44.059 38.9409 44.0124C37.0372 43.9662 35.3547 45.5887 35.3306 47.4939Z" fill="#C56225" fill-opacity="0.1"/>
<path d="M64.1623 34.7609C64.8444 34.1032 65.2264 33.2162 65.2379 32.2641C65.2505 31.311 64.8911 30.4065 64.2266 29.7173C63.5615 29.0277 62.6706 28.6357 61.7176 28.6137C59.7527 28.566 58.1316 30.1293 58.1078 32.0947C58.0953 33.0478 58.4546 33.9523 59.1197 34.642C59.7842 35.3311 60.6751 35.7231 61.6281 35.7451C62.5799 35.7682 63.4802 35.4187 64.1623 34.7609Z" fill="#393939" fill-opacity="0.1"/>
<path d="M77.5529 33.8725C78.2073 33.2414 78.6183 32.3601 78.6312 31.3763C78.6566 29.4104 77.0771 27.7724 75.111 27.7259C73.1427 27.6814 71.5271 29.2437 71.5001 31.2079C71.4753 33.1744 73.0548 34.8124 75.0204 34.8584C76.0039 34.8812 76.8996 34.5025 77.5529 33.8725Z" fill="#C56225" fill-opacity="0.1"/>
<path d="M85.4549 35.3211C85.4295 37.287 87.0091 38.925 88.9751 38.9716C89.9576 38.9954 90.8544 38.6157 91.5077 37.9857C92.1621 37.3546 92.573 36.4733 92.586 35.4895C92.6109 33.5231 91.0313 31.8851 89.0658 31.8391C87.1598 31.795 85.4779 33.417 85.4549 35.3211Z" fill="#C56225" fill-opacity="0.1"/>
<path d="M107.752 58.4426C108.733 58.4658 109.631 58.0867 110.284 57.4567C110.938 56.8256 111.349 55.9437 111.362 54.9605C111.386 52.9951 109.807 51.3571 107.842 51.3095C105.878 51.2651 104.256 52.8251 104.231 54.7916C104.207 56.757 105.787 58.3949 107.752 58.4426Z" fill="#393939" fill-opacity="0.1"/>
<path d="M113.486 71.1346C114.14 70.5035 114.552 69.6205 114.564 68.6384C114.588 66.673 113.008 65.035 111.043 64.9874C109.075 64.9429 107.457 66.5073 107.432 68.4694C107.409 70.4348 108.988 72.0728 110.953 72.1205C111.936 72.1427 112.832 71.7646 113.486 71.1346Z" fill="#C56225" fill-opacity="0.1"/>
<path d="M106.243 97.5161C106.896 96.8861 107.308 96.0031 107.32 95.0209C107.345 93.0545 105.766 91.4176 103.8 91.371C101.896 91.3237 100.214 92.9457 100.189 94.8531C100.165 96.8196 101.743 98.4564 103.709 98.503C104.692 98.5252 105.588 98.1471 106.243 97.5161Z" fill="#393939" fill-opacity="0.1"/>
<path d="M69.9097 113.156C70.5636 112.525 70.9739 111.644 70.9869 110.661C71.0112 108.695 69.4317 107.057 67.4661 107.01C65.5011 106.964 63.8817 108.526 63.8558 110.491C63.8321 112.457 65.4116 114.095 67.3766 114.142C68.3591 114.165 69.2558 113.786 69.9097 113.156Z" fill="#C56225" fill-opacity="0.1"/>
<path d="M45.3125 101.275C45.9663 100.645 46.3772 99.7623 46.3902 98.7796C46.4151 96.8131 44.8361 95.1757 42.87 95.1291C40.9023 95.0831 39.2834 96.6453 39.2596 98.6107C39.2348 100.577 40.8138 102.215 42.7799 102.261C43.7624 102.284 44.6591 101.905 45.3125 101.275Z" fill="#393939" fill-opacity="0.1"/>
<path d="M34.8821 90.438C35.8652 90.4613 36.7614 90.0821 37.4153 89.4516C38.0691 88.8211 38.48 87.9397 38.4925 86.9565C38.5045 86.0039 38.1451 85.0993 37.48 84.4097C36.815 83.72 35.9246 83.3286 34.9722 83.306C33.0674 83.2609 31.386 84.8823 31.3619 86.7875C31.3371 88.7529 32.9166 90.3909 34.8821 90.438Z" fill="#C56225" fill-opacity="0.1"/>
<path d="M31.4438 76.8803C32.3963 76.9029 33.2965 76.5534 33.9786 75.8956C34.6607 75.2378 35.0427 74.3509 35.0542 73.3988C35.0668 72.4468 34.7074 71.5422 34.0423 70.8526C33.3772 70.1629 32.4864 69.7709 31.5339 69.7484C29.5679 69.7018 27.9485 71.2634 27.9236 73.2299C27.8993 75.1958 29.4789 76.8338 31.4438 76.8803Z" fill="#C56225" fill-opacity="0.1"/>
<path d="M29.476 59.7051C29.4511 61.6716 31.0301 63.309 32.9962 63.3556C33.9792 63.3789 34.8755 62.9997 35.5293 62.3692C36.1826 61.7392 36.5941 60.8573 36.6065 59.874C36.6314 57.9076 35.0524 56.2702 33.0863 56.2236C31.1191 56.1781 29.5008 57.7408 29.476 59.7051Z" fill="#393939" fill-opacity="0.1"/>
<path d="M83.7025 112.69C84.3846 112.032 84.7666 111.145 84.7775 110.193C84.7901 109.241 84.4307 108.336 83.7656 107.646C83.1006 106.957 82.2097 106.565 81.2578 106.543C79.353 106.496 77.6705 108.118 77.6475 110.024C77.6226 111.991 79.2011 113.628 81.1672 113.674C82.1201 113.697 83.0204 113.348 83.7025 112.69Z" fill="#C56225" fill-opacity="0.1"/>
<path d="M51.3291 40.5709C52.0112 39.9131 52.3932 39.0261 52.4047 38.0741C52.4284 36.1087 50.8494 34.4712 48.8844 34.4236C46.9807 34.3774 45.2987 35.9994 45.2736 37.9057C45.2498 39.8711 46.8288 41.5085 48.7938 41.5561C49.7468 41.5782 50.647 41.2286 51.3291 40.5709Z" fill="#C56225" fill-opacity="0.1"/>
<path d="M17.9258 50.1443C17.901 52.1108 19.48 53.7482 21.4461 53.7948C22.4291 53.8181 23.3253 53.4389 23.9786 52.8089C24.6325 52.1784 25.044 51.2965 25.0564 50.3133C25.0812 48.3468 23.5022 46.7094 21.5362 46.6628C19.5712 46.6162 17.9507 48.1768 17.9258 50.1443Z" fill="#393939" fill-opacity="0.1"/>
<path d="M14.0247 64.266C13.9998 66.2325 15.5788 67.8699 17.5449 67.9165C18.4968 67.9396 19.397 67.59 20.0791 66.9323C20.7612 66.2745 21.1432 65.3876 21.1552 64.435C21.1795 62.469 19.6005 60.8316 17.635 60.7845C15.7302 60.7394 14.0476 62.3619 14.0247 64.266Z" fill="#393939" fill-opacity="0.1"/>
<path d="M20.4489 76.3617C19.7838 75.672 18.893 75.28 17.9405 75.2575C15.9739 75.2114 14.3556 76.7742 14.3302 78.739C14.3182 79.6916 14.6775 80.5961 15.3426 81.2858C16.0077 81.9755 16.8986 82.3675 17.8504 82.3895C18.8335 82.4128 19.7297 82.0336 20.3836 81.4031C21.0369 80.7731 21.4483 79.8912 21.4608 78.9079C21.4733 77.9559 21.114 77.0514 20.4489 76.3617Z" fill="#C56225" fill-opacity="0.1"/>
<path d="M24.9744 95.2484C25.6282 94.6179 26.0397 93.736 26.0521 92.7527C26.077 90.7863 24.498 89.1489 22.5319 89.1023C20.5669 89.0557 18.9464 90.6163 18.9215 92.5838C18.8967 94.5503 20.4757 96.1877 22.4418 96.2343C23.4248 96.2576 24.3211 95.8784 24.9744 95.2484Z" fill="#C56225" fill-opacity="0.1"/>
<path d="M26.7254 105.218C26.7128 106.17 27.0722 107.075 27.7372 107.764C28.4023 108.454 29.2932 108.846 30.2456 108.869C31.2281 108.891 32.1249 108.513 32.7782 107.883C33.432 107.252 33.843 106.37 33.8559 105.387C33.868 104.434 33.5086 103.53 32.8435 102.84C32.1785 102.151 31.2876 101.759 30.3357 101.737C28.3707 101.69 26.7502 103.251 26.7254 105.218Z" fill="#393939" fill-opacity="0.1"/>
<path d="M40.996 111.341C39.0288 111.295 37.4105 112.858 37.3857 114.822C37.3614 116.788 38.9409 118.426 40.9064 118.473C41.8889 118.496 42.7857 118.118 43.439 117.488C44.0929 116.857 44.5038 115.975 44.5168 114.992C44.5411 113.026 42.9615 111.388 40.996 111.341Z" fill="#393939" fill-opacity="0.1"/>
<path d="M50.3276 121.746C50.3151 122.698 50.6744 123.602 51.3395 124.292C52.0046 124.982 52.8954 125.374 53.8473 125.396C54.8003 125.419 55.7005 125.069 56.3821 124.412C57.0642 123.754 57.4462 122.867 57.4577 121.914C57.4702 120.962 57.1109 120.057 56.4458 119.368C55.7807 118.678 54.8898 118.286 53.938 118.264C52.032 118.218 50.3506 119.839 50.3276 121.746Z" fill="#393939" fill-opacity="0.1"/>
<path d="M72.5008 124.765C72.5257 122.798 70.9472 121.161 68.9811 121.115C67.0161 121.069 65.3967 122.631 65.3708 124.596C65.3582 125.548 65.7176 126.453 66.3827 127.143C67.0478 127.832 67.9386 128.224 68.8905 128.246C69.8429 128.27 70.7431 127.92 71.4252 127.263C72.1073 126.605 72.4893 125.718 72.5008 124.765Z" fill="#C56225" fill-opacity="0.1"/>
<path d="M83.4008 119.9C81.4949 119.853 79.8124 121.476 79.7905 123.381C79.7779 124.333 80.1373 125.238 80.8024 125.927C81.4674 126.617 82.3583 127.009 83.3102 127.031C84.2626 127.055 85.1628 126.705 85.8449 126.047C86.527 125.39 86.909 124.503 86.9205 123.55C86.9454 121.583 85.3669 119.946 83.4008 119.9Z" fill="#C56225" fill-opacity="0.1"/>
<path d="M93.3438 118.36C93.3195 120.326 94.8991 121.964 96.8646 122.011C97.8471 122.034 98.7439 121.655 99.3972 121.025C100.051 120.395 100.462 119.512 100.475 118.53C100.499 116.564 98.9197 114.926 96.9542 114.879C94.987 114.833 93.3676 116.395 93.3438 118.36Z" fill="#393939" fill-opacity="0.1"/>
<path d="M105.224 109.787C105.199 111.752 106.779 113.39 108.744 113.438C109.727 113.46 110.623 113.082 111.277 112.452C111.931 111.821 112.342 110.939 112.354 109.957C112.379 107.99 110.8 106.352 108.833 106.306C106.87 106.259 105.25 107.821 105.224 109.787Z" fill="#393939" fill-opacity="0.1"/>
<path d="M114.223 98.2259C114.198 100.192 115.778 101.83 117.744 101.877C118.726 101.9 119.623 101.521 120.276 100.891C120.93 100.261 121.341 99.378 121.354 98.3959C121.377 96.4305 119.798 94.7925 117.833 94.7449C115.869 94.6983 114.248 96.2616 114.223 98.2259Z" fill="#393939" fill-opacity="0.1"/>
<path d="M119.659 84.9353C119.634 86.9018 121.212 88.5386 123.178 88.5852C124.132 88.6078 125.032 88.2583 125.714 87.6005C126.396 86.9427 126.778 86.0558 126.789 85.1031C126.814 83.1367 125.236 81.4998 123.27 81.4532C121.365 81.4059 119.683 83.0279 119.659 84.9353Z" fill="#C56225" fill-opacity="0.1"/>
<path d="M121.093 70.2656C121.08 71.2182 121.439 72.1227 122.104 72.8124C122.77 73.5021 123.66 73.894 124.614 73.9166C125.596 73.9399 126.493 73.5607 127.146 72.9307C127.8 72.3007 128.211 71.4178 128.224 70.4356C128.236 69.4819 127.876 68.5774 127.211 67.8877C126.546 67.198 125.655 66.8061 124.703 66.7846C122.737 66.7402 121.118 68.3013 121.093 70.2656Z" fill="#C56225" fill-opacity="0.1"/>
<path d="M125.233 58.7954C125.886 58.1654 126.297 57.2825 126.31 56.3003C126.335 54.3339 124.755 52.6959 122.789 52.6493C120.825 52.6028 119.204 54.166 119.179 56.1303C119.154 58.0968 120.734 59.7348 122.7 59.7813C123.682 59.8046 124.579 59.4254 125.233 58.7954Z" fill="#393939" fill-opacity="0.1"/>
<path d="M116.729 39.0077C114.765 38.9611 113.144 40.5244 113.119 42.4887C113.094 44.4551 114.674 46.0931 116.64 46.1397C117.622 46.163 118.519 45.7838 119.172 45.1538C119.826 44.5238 120.237 43.6408 120.25 42.6587C120.274 40.6922 118.695 39.0542 116.729 39.0077Z" fill="#393939" fill-opacity="0.1"/>
<path d="M103.508 31.1747C103.483 33.1406 105.062 34.7786 107.028 34.8251C108.011 34.849 108.908 34.4692 109.561 33.8392C110.215 33.2082 110.626 32.3268 110.639 31.3431C110.664 29.3766 109.084 27.7386 107.119 27.6926C105.213 27.6485 103.531 29.2705 103.508 31.1747Z" fill="#393939" fill-opacity="0.1"/>
<path d="M91.3542 22.7352C91.3304 24.7006 92.9094 26.338 94.8744 26.3856C95.858 26.4084 96.7537 26.0297 97.407 25.3997C98.0614 24.7687 98.4734 23.8863 98.4853 22.9036C98.509 20.9382 96.93 19.3008 94.9651 19.2531C92.9973 19.207 91.3807 20.7682 91.3542 22.7352Z" fill="#C56225" fill-opacity="0.1"/>
<path d="M83.4717 20.5688C84.1538 19.911 84.5358 19.0241 84.5484 18.0709C84.5738 16.105 82.9942 14.4671 81.0282 14.4205C79.0626 14.3745 77.4427 15.9366 77.4173 17.9026C77.3924 19.869 78.972 21.507 80.9375 21.553C81.8894 21.5761 82.7896 21.2266 83.4717 20.5688Z" fill="#C56225" fill-opacity="0.1"/>
<path d="M68.6484 20.0957C69.3305 19.4379 69.7125 18.5509 69.724 17.5989C69.7366 16.6457 69.3772 15.7412 68.7127 15.0521C68.0476 14.3624 67.1567 13.9704 66.2038 13.9484C64.3 13.9022 62.6169 15.5253 62.594 17.4294C62.5814 18.3826 62.9408 19.2871 63.6058 19.9767C64.2704 20.6659 65.1612 21.0578 66.1142 21.0799C67.0661 21.103 67.9663 20.7534 68.6484 20.0957Z" fill="#393939" fill-opacity="0.1"/>
<path d="M54.7692 23.1168C55.4236 22.4857 55.8357 21.6033 55.8475 20.6206C55.8713 18.6552 54.2923 17.0178 52.3273 16.9701C50.3585 16.9251 48.7418 18.4863 48.7164 20.4522C48.6927 22.4176 50.2717 24.055 52.2366 24.1027C53.2202 24.1254 54.1159 23.7468 54.7692 23.1168Z" fill="#393939" fill-opacity="0.1"/>
<path d="M42.0318 29.744C42.6851 29.114 43.0971 28.2316 43.109 27.2489C43.1216 26.2958 42.7622 25.3912 42.0972 24.7016C41.4321 24.0119 40.5412 23.6199 39.5888 23.5984C37.685 23.5523 36.002 25.1753 35.979 27.0795C35.9659 28.032 36.3252 28.9366 36.9903 29.6262C37.6554 30.3159 38.5463 30.7079 39.4992 30.7299C40.4817 30.7537 41.3785 30.374 42.0318 29.744Z" fill="#C56225" fill-opacity="0.1"/>
<path d="M31.2894 40.1032C31.9432 39.4727 32.3542 38.5903 32.3671 37.6076C32.3792 36.655 32.0198 35.7504 31.3547 35.0608C30.6897 34.3711 29.7988 33.9791 28.8469 33.9571C26.8808 33.9105 25.2614 35.4722 25.2366 37.4387C25.224 38.3907 25.5834 39.2952 26.2484 39.9849C26.9135 40.6746 27.8044 41.0666 28.7568 41.0891C29.7393 41.1118 30.6361 40.7332 31.2894 40.1032Z" fill="#C56225" fill-opacity="0.1"/>
<path d="M13.0314 42.8472C13.6852 42.2167 14.0961 41.3353 14.1086 40.3521C14.1206 39.3995 13.7612 38.495 13.0962 37.8053C12.4311 37.1156 11.5408 36.7242 10.5883 36.7016C8.68349 36.6565 7.00151 38.2785 6.97855 40.1826C6.96598 41.1347 7.32535 42.0392 7.99042 42.7289C8.65549 43.4185 9.54637 43.8105 10.4988 43.8331C11.4818 43.8564 12.3775 43.4777 13.0314 42.8472Z" fill="#393939" fill-opacity="0.1"/>
<path d="M7.87853 56.8233C8.56063 56.1655 8.94263 55.2786 8.95467 54.326C8.9795 52.3606 7.39995 50.7226 5.43443 50.6755C3.46836 50.6289 1.84894 52.1906 1.82409 54.157C1.81206 55.1096 2.17143 56.0142 2.8365 56.7038C3.50157 57.3935 4.39245 57.7855 5.34433 57.8075C6.29619 57.8306 7.19644 57.481 7.87853 56.8233Z" fill="#393939" fill-opacity="0.1"/>
<path d="M6.05314 72.2211C6.70699 71.5906 7.11793 70.7081 7.13089 69.7255C7.14292 68.7728 6.78355 67.8683 6.11848 67.1786C5.45341 66.489 4.56254 66.097 3.61066 66.075C1.64568 66.0284 0.0251768 67.589 0.000319126 69.5565C-0.0122548 70.5086 0.347116 71.4131 1.01219 72.1028C1.67726 72.7925 2.56813 73.1844 3.52055 73.207C4.50305 73.2297 5.39983 72.8511 6.05314 72.2211Z" fill="#393939" fill-opacity="0.1"/>
<path d="M7.38369 87.377C8.06578 86.7192 8.44779 85.8323 8.45927 84.8802C8.48411 82.9137 6.90511 81.2763 4.93903 81.2297C3.0353 81.1835 1.35277 82.806 1.3287 84.7113C1.30441 86.6772 2.88341 88.3146 4.84893 88.3617C5.80135 88.3843 6.70159 88.0347 7.38369 87.377Z" fill="#C56225" fill-opacity="0.1"/>
<path d="M12.4212 101.836C13.0751 101.206 13.4865 100.324 13.499 99.3406C13.5232 97.3747 11.9442 95.7372 9.97872 95.6901C8.07388 95.645 6.39135 97.2675 6.36838 99.1717C6.34354 101.138 7.92254 102.776 9.88862 102.822C10.8717 102.845 11.7673 102.467 12.4212 101.836Z" fill="#C56225" fill-opacity="0.1"/>
<path d="M20.4323 114.686C21.0862 114.055 21.4977 113.173 21.5101 112.19C21.5344 110.224 19.9554 108.587 17.9898 108.539C16.085 108.494 14.4025 110.117 14.3795 112.021C14.3547 113.987 15.9337 115.625 17.8997 115.671C18.8828 115.695 19.7785 115.316 20.4323 114.686Z" fill="#393939" fill-opacity="0.1"/>
<path d="M31.9833 123.051C32.0082 121.084 30.4297 119.447 28.4636 119.401C26.4986 119.355 24.8792 120.917 24.8533 122.882C24.8407 123.834 25.2001 124.739 25.8652 125.428C26.5302 126.118 27.4211 126.51 28.373 126.532C29.3254 126.556 30.2256 126.206 30.9077 125.548C31.5898 124.891 31.9718 124.004 31.9833 123.051Z" fill="#393939" fill-opacity="0.1"/>
<path d="M109.567 124.889C109.543 126.855 111.123 128.493 113.088 128.54C114.071 128.563 114.967 128.184 115.621 127.554C116.274 126.924 116.685 126.041 116.698 125.059C116.723 123.093 115.143 121.455 113.178 121.408C111.211 121.362 109.593 122.924 109.567 124.889Z" fill="#393939" fill-opacity="0.1"/>
<path d="M120.31 114.53C120.285 116.496 121.864 118.134 123.83 118.181C124.812 118.204 125.71 117.825 126.363 117.195C127.016 116.565 127.428 115.682 127.44 114.7C127.465 112.733 125.886 111.095 123.919 111.049C121.956 111.002 120.334 112.566 120.31 114.53Z" fill="#393939" fill-opacity="0.1"/>
<path d="M128.565 101.247C128.541 103.215 130.121 104.853 132.086 104.898C133.069 104.92 133.965 104.542 134.62 103.911C135.273 103.281 135.684 102.398 135.697 101.416C135.723 99.4507 134.143 97.8127 132.176 97.765C130.21 97.7184 128.592 99.2829 128.565 101.247Z" fill="#393939" fill-opacity="0.1"/>
<path d="M133.479 87.6521C133.455 89.6174 135.034 91.2554 136.999 91.3031C137.982 91.3253 138.879 90.9472 139.532 90.3172C140.186 89.6861 140.598 88.8031 140.61 87.821C140.634 85.8556 139.054 84.2176 137.089 84.17C135.121 84.1255 133.503 85.69 133.479 87.6521Z" fill="#C56225" fill-opacity="0.1"/>
<path d="M135.429 72.2988C135.403 74.2641 136.983 75.9021 138.95 75.9498C139.933 75.972 140.829 75.5939 141.482 74.9639C142.137 74.3328 142.548 73.4499 142.561 72.4677C142.585 70.5001 141.005 68.8621 139.04 68.8167C137.072 68.7722 135.456 70.3345 135.429 72.2988Z" fill="#C56225" fill-opacity="0.1"/>
<path d="M134.426 57.4083C134.4 59.3737 135.98 61.0116 137.947 61.0593C138.93 61.0815 139.826 60.7034 140.479 60.0734C141.134 59.4424 141.545 58.5594 141.558 57.5773C141.581 55.6097 140.002 53.9717 138.037 53.9262C136.069 53.8818 134.453 55.4441 134.426 57.4083Z" fill="#393939" fill-opacity="0.1"/>
<path d="M129.349 42.9071C129.336 43.8597 129.695 44.7642 130.36 45.4538C131.026 46.1435 131.916 46.5355 132.869 46.557C133.821 46.5806 134.722 46.2311 135.404 45.5733C136.086 44.9156 136.468 44.0286 136.479 43.076C136.492 42.1234 136.132 41.2189 135.467 40.5292C134.802 39.8395 133.911 39.4475 132.959 39.4261C131.054 39.3788 129.371 41.0018 129.349 42.9071Z" fill="#393939" fill-opacity="0.1"/>
<path d="M124.987 26.6165C123.02 26.571 121.4 28.1288 121.376 30.0986C121.352 32.0651 122.93 33.7019 124.896 33.7485C125.88 33.7718 126.775 33.3926 127.429 32.7626C128.083 32.1316 128.495 31.2508 128.507 30.2664C128.532 28.3 126.953 26.6631 124.987 26.6165Z" fill="#393939" fill-opacity="0.1"/>
<path d="M110.755 19.084C110.731 21.0494 112.31 22.6868 114.275 22.7344C115.258 22.7566 116.154 22.378 116.807 21.748C117.461 21.1169 117.872 20.2356 117.886 19.2524C117.91 17.287 116.331 15.6495 114.366 15.6019C112.398 15.5558 110.781 17.117 110.755 19.084Z" fill="#393939" fill-opacity="0.1"/>
<path d="M101.726 14.2615C102.708 14.2853 103.605 13.9056 104.258 13.2756C104.911 12.6456 105.323 11.7632 105.335 10.7805C105.348 9.82734 104.989 8.92282 104.323 8.23315C103.659 7.54403 102.768 7.15206 101.815 7.13002C99.9113 7.08383 98.2282 8.70688 98.2053 10.611C98.1927 11.5642 98.5521 12.4687 99.2166 13.1578C99.8817 13.8475 100.773 14.2395 101.726 14.2615Z" fill="#C56225" fill-opacity="0.1"/>
<path d="M89.5351 8.15305C90.1895 7.52198 90.6004 6.64063 90.6134 5.65687C90.6371 3.69147 89.0581 2.05405 87.0932 2.0064C85.1238 1.96084 83.506 3.52526 83.4823 5.48848C83.4585 7.45388 85.0376 9.0913 87.0025 9.13894C87.9861 9.16169 88.8818 8.78305 89.5351 8.15305Z" fill="#C56225" fill-opacity="0.1"/>
<path d="M75.1211 6.14755C75.7755 5.51648 76.1865 4.63513 76.1994 3.65137C76.2248 1.68545 74.6453 0.0474769 72.6792 0.000902851C70.7115 -0.0429782 69.0948 1.51819 69.0683 3.48298C69.0435 5.44945 70.623 7.08742 72.5885 7.13344C73.5721 7.15619 74.4678 6.77755 75.1211 6.14755Z" fill="#393939" fill-opacity="0.1"/>
<path d="M59.3579 7.17721C60.0123 6.54615 60.4232 5.6648 60.4362 4.68103C60.4616 2.71512 58.882 1.07714 56.9159 1.03057C54.9482 0.986686 53.3315 2.54785 53.305 4.51264C53.2802 6.47911 54.8597 8.11709 56.8253 8.1631C57.8089 8.18586 58.7046 7.80721 59.3579 7.17721Z" fill="#393939" fill-opacity="0.1"/>
<path d="M45.0328 11.9874C45.6861 11.3574 46.0981 10.475 46.11 9.49232C46.1226 8.53918 45.7632 7.63466 45.0981 6.94498C44.433 6.25531 43.5422 5.86333 42.5897 5.84186C40.686 5.79566 39.0029 7.41871 38.9799 9.32286C38.9668 10.2755 39.3262 11.18 39.9913 11.8696C40.6563 12.5593 41.5472 12.9513 42.5002 12.9733C43.4827 12.9971 44.3795 12.6174 45.0328 11.9874Z" fill="#393939" fill-opacity="0.1"/>
<path d="M32.3926 19.7482C33.0459 19.1182 33.4579 18.2358 33.4698 17.2531C33.4824 16.3 33.123 15.3954 32.4579 14.7058C31.7929 14.0161 30.902 13.6241 29.9496 13.6026C28.0458 13.5564 26.3627 15.1795 26.3398 17.0836C26.3267 18.0362 26.686 18.9407 27.3511 19.6304C28.0162 20.3201 28.907 20.7121 29.86 20.7341C30.8425 20.7579 31.7393 20.3782 32.3926 19.7482Z" fill="#C56225" fill-opacity="0.1"/>
<path d="M21.6502 30.1074C22.304 29.4769 22.715 28.5944 22.7279 27.6118C22.74 26.6592 22.3806 25.7546 21.7155 25.065C21.0504 24.3753 20.1596 23.9833 19.2077 23.9613C17.2422 23.9153 15.6217 25.4758 15.5974 27.4428C15.5848 28.3949 15.9442 29.2994 16.6092 29.9891C17.2743 30.6788 18.1652 31.0707 19.1176 31.0933C20.1001 31.116 20.9969 30.7374 21.6502 30.1074Z" fill="#C56225" fill-opacity="0.1"/>
<path d="M96.5234 133.04C96.5109 133.992 96.8702 134.897 97.5353 135.586C98.2004 136.276 99.0913 136.668 100.043 136.69C100.996 136.714 101.896 136.364 102.578 135.706C103.26 135.049 103.642 134.162 103.653 133.209C103.666 132.257 103.306 131.353 102.641 130.663C101.976 129.973 101.085 129.581 100.133 129.559C98.2284 129.512 96.5453 131.135 96.5234 133.04Z" fill="#393939" fill-opacity="0.1"/>
<path d="M81.9975 137.296C81.9732 139.262 83.5528 140.9 85.5183 140.947C86.5008 140.97 87.397 140.592 88.0509 139.962C88.7048 139.331 89.1157 138.449 89.1286 137.466C89.1524 135.501 87.5728 133.863 85.6079 133.815C83.6429 133.769 82.0235 135.331 81.9975 137.296Z" fill="#C56225" fill-opacity="0.1"/>
<path d="M67.0289 139.065C67.0046 141.031 68.5842 142.669 70.5497 142.716C71.5322 142.739 72.429 142.36 73.0823 141.73C73.7361 141.099 74.1471 140.217 74.16 139.234C74.1843 137.268 72.6048 135.63 70.6392 135.583C68.6721 135.538 67.0537 137.101 67.0289 139.065Z" fill="#C56225" fill-opacity="0.1"/>
<path d="M51.8185 137.069C51.7931 139.034 53.3727 140.672 55.3393 140.72C56.3218 140.743 57.2185 140.364 57.8724 139.733C58.5263 139.103 58.9366 138.221 58.9496 137.238C58.9611 136.285 58.6017 135.381 57.9367 134.691C57.2716 134.001 56.3807 133.609 55.4288 133.587C53.4638 133.542 51.8444 135.104 51.8185 137.069Z" fill="#393939" fill-opacity="0.1"/>
<path d="M41.1226 127.986C39.2167 127.94 37.5342 129.562 37.5123 131.468C37.4997 132.42 37.8591 133.324 38.5241 134.014C39.1892 134.704 40.0801 135.096 41.032 135.118C41.9844 135.141 42.8846 134.792 43.5667 134.134C44.2488 133.476 44.6308 132.589 44.6423 131.636C44.6672 129.67 43.0887 128.033 41.1226 127.986Z" fill="#393939" fill-opacity="0.1"/>
</svg>
