<svg width="428" height="122" viewBox="0 0 428 122" fill="none" xmlns="http://www.w3.org/2000/svg">
<g clip-path="url(#clip0_4_465)">
<path d="M60.5193 64.0697C62.1939 64.0697 63.5553 62.6932 63.5553 60.9999C63.5553 59.3073 62.1939 57.9308 60.5193 57.9308C58.8452 57.9308 57.4839 59.3073 57.4839 60.9999C57.4839 62.6932 58.8452 64.0697 60.5193 64.0697Z" fill="#C56225"/>
<path d="M62.6653 51.1656C63.2393 50.5858 63.5553 49.8151 63.5553 48.9951C63.5553 48.175 63.2393 47.4043 62.6653 46.8252C61.5199 45.6657 59.5187 45.6657 58.3732 46.8252C57.7999 47.4043 57.4839 48.175 57.4839 48.9951C57.4839 49.8151 57.7999 50.5858 58.3732 51.1656C58.965 51.764 59.7418 52.0628 60.5193 52.0628C61.2967 52.0628 62.0741 51.764 62.6653 51.1656Z" fill="#C56225"/>
<path d="M50.3195 57.9341C51.0963 57.9341 51.8737 57.6353 52.4655 57.0369C53.0389 56.4578 53.3548 55.687 53.3548 54.867C53.3548 54.047 53.0389 53.2762 52.4655 52.6965C51.2806 51.4997 49.3551 51.5011 48.1728 52.6965C47.5994 53.2762 47.2834 54.047 47.2834 54.867C47.2834 55.687 47.5994 56.4578 48.1728 57.0369C48.7646 57.6353 49.542 57.9341 50.3195 57.9341Z" fill="#C56225"/>
<path d="M48.1728 69.2881C48.7462 69.8685 49.5085 70.188 50.3195 70.188C51.1298 70.188 51.8921 69.8685 52.4655 69.2881C53.0389 68.709 53.3548 67.9382 53.3548 67.1182C53.3548 66.2982 53.0389 65.5274 52.4655 64.9483C51.3181 63.7862 49.3195 63.7888 48.1728 64.9483C47.5994 65.5274 47.2834 66.2982 47.2834 67.1182C47.2834 67.9382 47.5994 68.709 48.1728 69.2881Z" fill="#C56225"/>
<path d="M58.3732 75.1747C58.9459 75.7551 59.7082 76.0746 60.5193 76.0746C61.3303 76.0746 62.0926 75.7551 62.6653 75.1747C63.2393 74.5956 63.5553 73.8248 63.5553 73.0048C63.5553 72.1848 63.2393 71.414 62.6653 70.8349C61.5199 69.6741 59.5187 69.6741 58.3732 70.8349C57.7999 71.414 57.4839 72.1848 57.4839 73.0048C57.4839 73.8248 57.7999 74.5956 58.3732 75.1747Z" fill="#C56225"/>
<path d="M68.5399 69.2881C69.1126 69.8685 69.8749 70.188 70.6859 70.188C71.4969 70.188 72.2592 69.8685 72.832 69.2881C73.406 68.709 73.722 67.9382 73.722 67.1182C73.722 66.2982 73.406 65.5274 72.832 64.9483C71.6865 63.7875 69.6853 63.7875 68.5399 64.9483C67.9659 65.5274 67.6499 66.2982 67.6499 67.1182C67.6499 67.9382 67.9659 68.709 68.5399 69.2881Z" fill="#C56225"/>
<path d="M70.6859 57.9362C71.4969 57.9362 72.2592 57.6167 72.832 57.0369C73.406 56.4579 73.722 55.6871 73.722 54.8671C73.722 54.047 73.406 53.2763 72.832 52.6965C71.6497 51.4998 69.7222 51.4998 68.5399 52.6965C67.9659 53.2763 67.6499 54.047 67.6499 54.8671C67.6499 55.6871 67.9659 56.4579 68.5399 57.0369C69.1126 57.6167 69.8749 57.9362 70.6859 57.9362Z" fill="#C56225"/>
<path d="M47.7682 43.7953C48.2362 44.0689 48.755 44.208 49.2809 44.208C49.5449 44.208 49.8102 44.1727 50.0715 44.1022C50.8549 43.8898 51.5099 43.382 51.9147 42.6718C52.3203 41.9622 52.4282 41.1349 52.2182 40.3428C52.0082 39.5514 51.5059 38.8891 50.8036 38.4798C49.3547 37.6318 47.4943 38.137 46.6576 39.6027C45.8203 41.0683 46.3186 42.9493 47.7682 43.7953Z" fill="#C56225"/>
<path d="M59.0013 40.6417C59.4786 40.9193 59.9993 41.0517 60.5141 41.0517C61.5641 41.0517 62.5864 40.5006 63.1486 39.5175C63.9846 38.0525 63.4869 36.1715 62.0374 35.3255C60.5891 34.4776 58.7275 34.9827 57.8908 36.4484C57.0535 37.9141 57.5518 39.7951 59.0013 40.6417Z" fill="#C56225"/>
<path d="M39.39 52.0821C39.8666 52.361 40.3879 52.4928 40.9027 52.4928C41.952 52.4928 42.9743 51.9423 43.5359 50.9592C44.3732 49.4936 43.8749 47.6126 42.4253 46.7666C41.7223 46.3546 40.9021 46.2481 40.122 46.4598C39.3386 46.6721 38.6836 47.1799 38.2788 47.8901C37.4421 49.3558 37.9404 51.2361 39.39 52.0821Z" fill="#C56225"/>
<path d="M38.9944 63.9366C39.7778 63.7249 40.4328 63.2164 40.8383 62.5055C41.6743 61.0399 41.1753 59.1589 39.7264 58.3135C38.2755 57.4669 36.4172 57.9714 35.5805 59.4371C34.7432 60.9028 35.2415 62.7838 36.691 63.6304C37.1591 63.9033 37.6778 64.0431 38.2038 64.0431C38.4678 64.0431 38.733 64.0071 38.9944 63.9366Z" fill="#393939"/>
<path d="M39.3901 74.9151C39.8667 75.1933 40.388 75.3251 40.9028 75.3251C41.9521 75.3251 42.9744 74.7753 43.536 73.7915C44.3733 72.3259 43.875 70.4449 42.4254 69.5982C41.7224 69.1882 40.9022 69.0804 40.1221 69.2921C39.3387 69.5051 38.6837 70.0122 38.2789 70.7231C37.4422 72.1888 37.9412 74.0684 39.3901 74.9151Z" fill="#C56225"/>
<path d="M47.8234 83.3297C48.2908 83.6026 48.8095 83.7424 49.3355 83.7424C49.5994 83.7424 49.8647 83.7064 50.1267 83.6359C50.9094 83.4229 51.5644 82.9157 51.9693 82.2048C52.8066 80.7405 52.3083 78.8595 50.8588 78.0128C49.4092 77.1675 47.5489 77.6694 46.7122 79.1364C46.3067 79.8459 46.1987 80.6739 46.4087 81.466C46.6187 82.2581 47.121 82.9197 47.8234 83.3297Z" fill="#C56225"/>
<path d="M59.0013 86.6257C59.4779 86.9039 59.9993 87.0357 60.5141 87.0357C61.5641 87.0357 62.5864 86.4859 63.1486 85.5022C63.9846 84.0365 63.4869 82.1555 62.0374 81.3088C60.5891 80.4622 58.7275 80.9667 57.8908 82.4324C57.0535 83.898 57.5518 85.779 59.0013 86.6257Z" fill="#393939"/>
<path d="M70.3421 83.3296C70.8094 83.6025 71.3282 83.7423 71.8548 83.7423C72.1181 83.7423 72.3841 83.7063 72.6461 83.6358C73.4294 83.4228 74.0838 82.9156 74.4893 82.2047C74.8948 81.4952 75.0014 80.6685 74.7921 79.8764C74.5814 79.0844 74.0798 78.4228 73.3768 78.0127C71.9272 77.1661 70.0682 77.6693 69.2309 79.1363C68.3948 80.602 68.8925 82.483 70.3421 83.3296Z" fill="#C56225"/>
<path d="M82.9771 74.1097C83.3826 73.4001 83.4892 72.5721 83.2799 71.78C83.0692 70.988 82.5676 70.3264 81.8646 69.9163C80.4137 69.0684 78.556 69.5742 77.7187 71.0399C76.8826 72.5055 77.3803 74.3865 78.8299 75.2332C79.3065 75.5114 79.8278 75.6432 80.3426 75.6432C81.3919 75.6432 82.4149 75.0934 82.9771 74.1097Z" fill="#C56225"/>
<path d="M85.6749 62.5055C86.0804 61.796 86.1884 60.9686 85.9777 60.1772C85.7684 59.3851 85.2668 58.7229 84.5637 58.3135C83.862 57.9035 83.0431 57.7937 82.261 58.0067C81.4777 58.219 80.8233 58.7269 80.4178 59.4371C80.0123 60.1473 79.9043 60.9739 80.115 61.766C80.3243 62.5588 80.8259 63.2204 81.529 63.6304C81.9964 63.9033 82.5151 64.0431 83.0417 64.0431C83.3051 64.0431 83.5697 64.0071 83.8317 63.9366C84.6151 63.7236 85.2694 63.2164 85.6749 62.5055Z" fill="#393939"/>
<path d="M81.8646 46.7666C81.1628 46.356 80.3466 46.2481 79.5619 46.4598C78.7785 46.6721 78.1242 47.18 77.7187 47.8902C76.8826 49.3552 77.3803 51.2362 78.8299 52.0822C79.3065 52.361 79.8278 52.4935 80.3426 52.4935C81.3919 52.4928 82.4149 51.9424 82.9771 50.9593C83.3826 50.2491 83.4892 49.4217 83.2799 48.6303C83.0692 47.8383 82.5676 47.176 81.8646 46.7666Z" fill="#C56225"/>
<path d="M69.2309 39.6027C68.3948 41.0683 68.8925 42.9493 70.3421 43.7953C70.8094 44.0689 71.3282 44.208 71.8548 44.208C72.1181 44.208 72.3841 44.1727 72.6461 44.1022C73.4294 43.8898 74.0838 43.382 74.4893 42.6718C74.8948 41.9622 75.0014 41.1349 74.7921 40.3428C74.5814 39.5514 74.0798 38.8891 73.3768 38.4798C71.9272 37.6318 70.0682 38.137 69.2309 39.6027Z" fill="#C56225"/>
<path d="M92.3726 58.8301C91.189 60.0268 91.189 61.9731 92.3726 63.1698C92.9453 63.7502 93.7076 64.0697 94.5186 64.0697C95.3296 64.0697 96.0919 63.7502 96.6646 63.1698C97.2386 62.5907 97.5546 61.82 97.5546 60.9999C97.5546 60.1799 97.2386 59.4091 96.6646 58.8301C95.5192 57.6706 93.518 57.6706 92.3726 58.8301Z" fill="#393939"/>
<path d="M77.6493 93.8795C78.4603 93.8795 79.2226 93.56 79.7953 92.9796C80.3694 92.4005 80.6853 91.6298 80.6853 90.8098C80.6853 89.9897 80.3694 89.2189 79.7953 88.6399C78.6499 87.4791 76.6487 87.4791 75.5033 88.6399C74.9293 89.2189 74.6133 89.9897 74.6133 90.8098C74.6133 91.6298 74.9293 92.4005 75.5033 92.9796C76.076 93.56 76.8383 93.8795 77.6493 93.8795Z" fill="#C56225"/>
<path d="M54.4682 97.9224C55.2457 97.9224 56.0224 97.6229 56.6142 97.0251C57.1876 96.4461 57.5036 95.6753 57.5036 94.8553C57.5036 94.0353 57.1876 93.2645 56.6142 92.6854C55.4688 91.5246 53.4683 91.5246 52.3215 92.6854C51.1379 93.8822 51.1379 95.8284 52.3215 97.0251C52.9133 97.6229 53.6908 97.9224 54.4682 97.9224Z" fill="#393939"/>
<path d="M26.5317 70.4049C25.3494 71.6017 25.3494 73.5492 26.5317 74.746C27.1235 75.3437 27.901 75.6432 28.6784 75.6432C29.4559 75.6432 30.2326 75.3437 30.8244 74.746C32.0074 73.5492 32.0074 71.6017 30.8244 70.4049C29.6408 69.2095 27.7153 69.2095 26.5317 70.4049Z" fill="#393939"/>
<path d="M52.3215 24.9747C51.1386 26.1714 51.1386 28.1183 52.3215 29.3151C52.8949 29.8948 53.6572 30.2143 54.4682 30.2143C55.2792 30.2143 56.0415 29.8948 56.6142 29.3151C57.7978 28.1183 57.7978 26.1714 56.6142 24.9747C55.4688 23.8152 53.4683 23.8152 52.3215 24.9747Z" fill="#C56225"/>
<path d="M77.6493 34.2592C78.4603 34.2592 79.2226 33.9397 79.7953 33.36C80.3694 32.7803 80.6853 32.0095 80.6853 31.1901C80.6853 30.3701 80.3694 29.5993 79.7953 29.0196C78.613 27.8228 76.6856 27.8228 75.5033 29.0196C74.9293 29.5993 74.6133 30.3701 74.6133 31.1901C74.6133 32.0095 74.9293 32.7803 75.5033 33.36C76.076 33.9397 76.8383 34.2592 77.6493 34.2592Z" fill="#393939"/>
<path d="M86.4268 41.6674C87.2049 41.6674 87.9817 41.3686 88.5741 40.7702C89.7577 39.5741 89.7577 37.6265 88.5741 36.4298C87.3879 35.233 85.4644 35.2357 84.2808 36.4298C83.0972 37.6265 83.0972 39.5741 84.2808 40.7702C84.8732 41.3686 85.65 41.6674 86.4268 41.6674Z" fill="#C56225"/>
<path d="M90.4346 47.2545C89.251 48.4506 89.251 50.3982 90.4346 51.5949C91.0257 52.1933 91.8038 52.4922 92.5806 52.4922C93.3587 52.4922 94.1355 52.1933 94.7279 51.5949C95.9115 50.3982 95.9115 48.4506 94.7279 47.2545C93.5799 46.095 91.58 46.095 90.4346 47.2545Z" fill="#C56225"/>
<path d="M90.4346 74.746C91.0257 75.3437 91.8038 75.6432 92.5806 75.6432C93.3587 75.6432 94.1355 75.3437 94.7279 74.746C95.9102 73.5492 95.9102 71.6017 94.7279 70.4049C93.5443 69.2108 91.6182 69.2081 90.4346 70.4049C89.2523 71.6017 89.2523 73.5492 90.4346 74.746Z" fill="#393939"/>
<path d="M86.4268 85.9721C87.2049 85.9721 87.983 85.6726 88.5741 85.0749C89.7564 83.8781 89.7564 81.9306 88.5741 80.7338C87.3879 79.537 85.4617 79.5397 84.2808 80.7338C83.0985 81.9306 83.0985 83.8781 84.2808 85.0749C84.8732 85.6726 85.65 85.9721 86.4268 85.9721Z" fill="#C56225"/>
<path d="M66.2909 97.9224C67.0677 97.9224 67.8458 97.6229 68.4369 97.0251C69.6205 95.8284 69.6205 93.8822 68.4369 92.6854C67.2915 91.5246 65.2916 91.5246 64.1436 92.6854C62.96 93.8822 62.96 95.8284 64.1436 97.0251C64.736 97.6229 65.5128 97.9224 66.2909 97.9224Z" fill="#393939"/>
<path d="M34.6147 85.9721C35.3921 85.9721 36.1689 85.6726 36.7607 85.0749C37.9437 83.8781 37.9437 81.9306 36.7607 80.7338C35.5771 79.5384 33.6516 79.5384 32.468 80.7338C31.2857 81.9306 31.2857 83.8781 32.468 85.0749C33.0598 85.6726 33.8373 85.9721 34.6147 85.9721Z" fill="#C56225"/>
<path d="M26.5191 64.0391C27.2965 64.0391 28.074 63.7396 28.6658 63.1419C29.8494 61.9451 29.8494 59.9982 28.6658 58.8015C27.4808 57.604 25.5553 57.6047 24.3731 58.8015C23.1895 59.9982 23.1895 61.9451 24.3731 63.1419C24.9649 63.7396 25.7423 64.0391 26.5191 64.0391Z" fill="#393939"/>
<path d="M26.5317 51.1656C27.1235 51.764 27.901 52.0628 28.6784 52.0628C29.4559 52.0628 30.2326 51.764 30.8244 51.1656C31.3978 50.5858 31.7138 49.8151 31.7138 48.9951C31.7138 48.175 31.3978 47.4049 30.8244 46.8252C29.6777 45.6657 27.6785 45.6657 26.5317 46.8252C25.3488 48.0213 25.3488 49.9688 26.5317 51.1656Z" fill="#C56225"/>
<path d="M32.468 40.7702C33.0414 41.3499 33.8037 41.6694 34.6147 41.6694C35.4257 41.6694 36.188 41.3499 36.7607 40.7702C37.3341 40.1911 37.6501 39.4203 37.6501 38.6003C37.6501 37.7803 37.3341 37.0095 36.7607 36.4298C35.5771 35.233 33.6516 35.233 32.468 36.4298C31.2851 37.6265 31.2851 39.5741 32.468 40.7702Z" fill="#C56225"/>
<path d="M41.4597 29.0196C40.2761 30.2163 40.2761 32.1632 41.4597 33.36C42.0515 33.9584 42.829 34.2572 43.6064 34.2572C44.3832 34.2572 45.1606 33.9584 45.7524 33.36C46.936 32.1632 46.936 30.2163 45.7524 29.0196C44.5675 27.8228 42.642 27.8241 41.4597 29.0196Z" fill="#393939"/>
<path d="M43.3891 93.8795C44.2001 93.8795 44.9624 93.56 45.5351 92.9796C46.1085 92.4005 46.4245 91.6298 46.4245 90.8098C46.4245 89.9897 46.1085 89.2189 45.5351 88.6399C44.3897 87.4791 42.3892 87.4791 41.2424 88.6399C40.0588 89.8366 40.0588 91.7829 41.2424 92.9796C41.8158 93.56 42.5781 93.8795 43.3891 93.8795Z" fill="#C56225"/>
<path d="M66.2909 30.2143C67.1019 30.2143 67.8642 29.8948 68.4369 29.3151C69.6192 28.1183 69.6192 26.1714 68.4369 24.9747C67.2915 23.8152 65.2916 23.8152 64.1436 24.9747C62.9613 26.1714 62.9613 28.1183 64.1436 29.3151C64.7176 29.8948 65.4799 30.2143 66.2909 30.2143Z" fill="#C56225"/>
<path d="M40.0239 16.2672C38.8403 17.464 38.8403 19.4109 40.0239 20.6076C40.6157 21.206 41.3932 21.5049 42.17 21.5049C42.9474 21.5049 43.7248 21.206 44.3166 20.6076C45.5002 19.4109 45.5002 17.464 44.3166 16.2672C43.1337 15.0711 41.2082 15.0698 40.0239 16.2672Z" fill="#393939"/>
<path d="M29.2307 22.6497C28.0471 23.8465 28.0471 25.7934 29.2307 26.9901C29.8034 27.5699 30.5657 27.8894 31.3767 27.8894C32.1878 27.8894 32.9501 27.5699 33.5234 26.9901C34.7064 25.7934 34.7064 23.8465 33.5234 22.6497C32.3767 21.4902 30.3761 21.4902 29.2307 22.6497Z" fill="#393939"/>
<path d="M26.0023 33.9184C26.0023 33.0984 25.6863 32.3276 25.113 31.7479C23.9287 30.5511 22.0032 30.5524 20.8203 31.7479C20.2469 32.3276 19.9309 33.0984 19.9309 33.9184C19.9309 34.7384 20.2469 35.5092 20.8203 36.0883C21.4121 36.6867 22.1895 36.9855 22.9669 36.9855C23.7437 36.9855 24.5212 36.6867 25.113 36.0883C25.6863 35.5092 26.0023 34.7384 26.0023 33.9184Z" fill="#C56225"/>
<path d="M17.5696 48.2429C18.3471 48.2429 19.1245 47.944 19.7163 47.3456C20.8999 46.1489 20.8999 44.202 19.7163 43.0052C18.5334 41.8091 16.6079 41.8078 15.4236 43.0052C14.24 44.202 14.24 46.1489 15.4236 47.3456C16.0154 47.944 16.7928 48.2429 17.5696 48.2429Z" fill="#C56225"/>
<path d="M12.7253 55.4255C12.1519 56.0045 11.8359 56.7753 11.8359 57.5953C11.8359 58.4154 12.1519 59.1861 12.7253 59.7659C13.3171 60.3636 14.0945 60.6631 14.8713 60.6631C15.6487 60.6631 16.4262 60.3636 17.018 59.7659C17.5914 59.1861 17.9073 58.4154 17.9073 57.5953C17.9073 56.7753 17.5914 56.0045 17.018 55.4255C15.835 54.2294 13.9095 54.228 12.7253 55.4255Z" fill="#393939"/>
<path d="M17.8799 67.676C16.6949 66.4792 14.7694 66.4805 13.5872 67.676C12.4042 68.8727 12.4042 70.8203 13.5872 72.017C14.179 72.6148 14.9564 72.9143 15.7332 72.9143C16.5106 72.9143 17.2881 72.6148 17.8799 72.017C19.0628 70.8203 19.0628 68.8727 17.8799 67.676Z" fill="#393939"/>
<path d="M17.4472 79.6302C16.8738 80.2093 16.5579 80.98 16.5579 81.8001C16.5579 82.6201 16.8738 83.3909 17.4472 83.9699C18.0206 84.5503 18.7829 84.8698 19.5932 84.8698C20.4042 84.8698 21.1665 84.5503 21.7399 83.9699C22.3133 83.3909 22.6293 82.6201 22.6293 81.8001C22.6293 80.98 22.3133 80.2093 21.7399 79.6302C20.5932 78.4694 18.594 78.4694 17.4472 79.6302Z" fill="#393939"/>
<path d="M29.3141 94.6636C30.4977 93.4668 30.4977 91.5206 29.3141 90.3238C28.1305 89.1284 26.205 89.1284 25.0214 90.3238C24.4481 90.9029 24.1321 91.6737 24.1321 92.4937C24.1321 93.3137 24.4481 94.0845 25.0214 94.6636C25.5941 95.244 26.3564 95.5635 27.1675 95.5635C27.9785 95.5635 28.7408 95.244 29.3141 94.6636Z" fill="#C56225"/>
<path d="M38.9201 98.142C37.7734 96.9812 35.7728 96.9812 34.6274 98.142C34.054 98.7211 33.738 99.4919 33.738 100.312C33.738 101.132 34.054 101.903 34.6274 102.482C35.2001 103.062 35.9624 103.382 36.7734 103.382C37.5844 103.382 38.3467 103.062 38.9201 102.482C40.1037 101.285 40.1037 99.3388 38.9201 98.142Z" fill="#C56225"/>
<path d="M45.9605 103.101C44.7775 104.298 44.7775 106.245 45.9605 107.442C46.5523 108.04 47.3297 108.339 48.1065 108.339C48.8839 108.339 49.6614 108.04 50.2532 107.442C51.4361 106.245 51.4361 104.298 50.2532 103.101C49.0682 101.904 47.1427 101.904 45.9605 103.101Z" fill="#393939"/>
<path d="M58.3731 104.877C57.1901 106.073 57.1901 108.021 58.3731 109.218C58.9649 109.815 59.7416 110.115 60.5191 110.115C61.2965 110.115 62.074 109.815 62.6651 109.218C63.8487 108.021 63.8487 106.073 62.6651 104.877C61.4828 103.681 59.5567 103.681 58.3731 104.877Z" fill="#393939"/>
<path d="M70.7857 103.101C69.602 104.298 69.602 106.245 70.7857 107.442C71.3768 108.04 72.1549 108.339 72.9317 108.339C73.7085 108.339 74.4866 108.04 75.0777 107.442C76.26 106.245 76.26 104.298 75.0777 103.101C73.8954 101.905 71.9679 101.905 70.7857 103.101Z" fill="#393939"/>
<path d="M82.0308 98.142C80.8472 99.3388 80.8472 101.285 82.0308 102.482C82.6048 103.062 83.3671 103.382 84.1781 103.382C84.9891 103.382 85.7514 103.062 86.3241 102.482C87.5077 101.285 87.5077 99.3388 86.3241 98.142C85.1787 96.9812 83.1788 96.9812 82.0308 98.142Z" fill="#C56225"/>
<path d="M91.6297 89.9564C91.0557 90.5355 90.7397 91.3063 90.7397 92.1263C90.7397 92.9463 91.0557 93.7171 91.6297 94.2975C92.2209 94.8952 92.999 95.1947 93.7758 95.1947C94.5526 95.1947 95.3307 94.8952 95.9218 94.2975C96.4958 93.7171 96.8118 92.9463 96.8118 92.1263C96.8118 91.3063 96.4958 90.5355 95.9218 89.9564C94.7369 88.761 92.812 88.761 91.6297 89.9564Z" fill="#C56225"/>
<path d="M100.995 85.3491C101.771 85.3491 102.55 85.0495 103.141 84.4518C104.324 83.2551 104.324 81.3075 103.141 80.1107C101.958 78.9153 100.031 78.9153 98.8486 80.1107C97.665 81.3075 97.665 83.2551 98.8486 84.4518C99.4398 85.0495 100.218 85.3491 100.995 85.3491Z" fill="#393939"/>
<path d="M107.512 68.106C106.33 66.9105 104.402 66.9105 103.22 68.106C102.036 69.3027 102.036 71.2503 103.22 72.447C103.811 73.0447 104.589 73.3443 105.366 73.3443C106.143 73.3443 106.921 73.0447 107.512 72.447C108.695 71.2503 108.695 69.3027 107.512 68.106Z" fill="#393939"/>
<path d="M104.02 55.4255C102.836 56.6216 102.836 58.5691 104.02 59.7659C104.611 60.3643 105.389 60.6631 106.166 60.6631C106.944 60.6631 107.721 60.3643 108.313 59.7659C109.497 58.5691 109.497 56.6216 108.313 55.4255C107.165 54.266 105.165 54.266 104.02 55.4255Z" fill="#393939"/>
<path d="M101.546 43.0052C100.364 44.202 100.364 46.1489 101.546 47.3456C102.139 47.944 102.916 48.2429 103.692 48.2429C104.471 48.2429 105.249 47.944 105.84 47.3456C107.022 46.1489 107.022 44.202 105.84 43.0052C104.655 41.8078 102.731 41.8091 101.546 43.0052Z" fill="#C56225"/>
<path d="M97.9771 36.9875C98.7881 36.9875 99.5504 36.668 100.124 36.0883C101.308 34.8922 101.308 32.9446 100.124 31.7479C98.9408 30.5518 97.0147 30.5518 95.8311 31.7479C94.6475 32.9446 94.6475 34.8922 95.8311 36.0883C96.4038 36.668 97.1661 36.9875 97.9771 36.9875Z" fill="#C56225"/>
<path d="M89.1259 27.8894C89.9369 27.8894 90.6992 27.5699 91.2719 26.9901C91.8459 26.4104 92.1619 25.6396 92.1619 24.8202C92.1619 24.0002 91.8459 23.2294 91.2719 22.6497C90.1265 21.4902 88.1253 21.4902 86.9799 22.6497C86.4058 23.2294 86.0898 24.0002 86.0898 24.8202C86.0898 25.6396 86.4058 26.4104 86.9799 26.9901C87.5526 27.5699 88.3149 27.8894 89.1259 27.8894Z" fill="#393939"/>
<path d="M78.7803 21.5049C79.5584 21.5049 80.3365 21.206 80.9276 20.6076C82.1099 19.4109 82.1099 17.464 80.9276 16.2672C79.7414 15.0698 77.8179 15.0711 76.6343 16.2672C75.452 17.464 75.452 19.4109 76.6343 20.6076C77.2267 21.206 78.0035 21.5049 78.7803 21.5049Z" fill="#393939"/>
<path d="M66.9955 18.0204C67.7723 18.0204 68.5504 17.7216 69.1415 17.1232C69.7156 16.5435 70.0315 15.7727 70.0315 14.9527C70.0315 14.1326 69.7156 13.3619 69.1415 12.7828C67.9961 11.6233 65.9949 11.6233 64.8495 12.7828C64.2755 13.3619 63.9595 14.1326 63.9595 14.9527C63.9595 15.7727 64.2755 16.5435 64.8495 17.1232C65.4406 17.7216 66.2187 18.0204 66.9955 18.0204Z" fill="#C56225"/>
<path d="M54.2226 18.0204C55.0001 18.0204 55.7775 17.7209 56.3693 17.1232C56.9427 16.5434 57.2587 15.7727 57.2587 14.9526C57.2587 14.1326 56.9427 13.3618 56.3693 12.7828C55.1857 11.586 53.2602 11.586 52.0766 12.7828C51.5032 13.3618 51.1873 14.1326 51.1873 14.9526C51.1873 15.7727 51.5032 16.5434 52.0766 17.1232C52.6684 17.7209 53.4458 18.0204 54.2226 18.0204Z" fill="#C56225"/>
<path d="M41.3437 8.8637C42.1212 8.8637 42.8979 8.56484 43.4897 7.96646C44.0631 7.38672 44.3791 6.61595 44.3791 5.79592C44.3791 4.9759 44.0631 4.20579 43.4897 3.62605C42.343 2.46657 40.3431 2.46657 39.1977 3.62605C38.6243 4.20513 38.3083 4.9759 38.3083 5.79592C38.3083 6.61595 38.6243 7.38672 39.1977 7.96646C39.7895 8.56484 40.5663 8.8637 41.3437 8.8637Z" fill="#393939"/>
<path d="M29.8659 14.4129C30.677 14.4129 31.4393 14.0934 32.0126 13.5136C33.1956 12.3175 33.1956 10.37 32.0126 9.1732C30.829 7.97644 28.9035 7.97644 27.7199 9.1732C27.1465 9.75295 26.8306 10.5237 26.8306 11.3437C26.8306 12.1638 27.1465 12.9345 27.7199 13.5136C28.2926 14.0934 29.0549 14.4129 29.8659 14.4129Z" fill="#393939"/>
<path d="M19.5932 22.8148C20.3707 22.8148 21.1481 22.5153 21.7399 21.9175C22.3133 21.3378 22.6293 20.567 22.6293 19.747C22.6293 18.927 22.3133 18.1562 21.7399 17.5771C20.557 16.381 18.6315 16.3797 17.4472 17.5771C16.8738 18.1562 16.5579 18.927 16.5579 19.747C16.5579 20.567 16.8738 21.3378 17.4472 21.9175C18.039 22.5153 18.8165 22.8148 19.5932 22.8148Z" fill="#393939"/>
<path d="M11.4089 32.9426C12.2199 32.9426 12.9822 32.6231 13.5549 32.0434C14.7385 30.8466 14.7385 28.8997 13.5549 27.703C12.4095 26.5435 10.409 26.5435 9.26221 27.703C8.07926 28.8997 8.07926 30.8466 9.26221 32.0434C9.83558 32.6231 10.5979 32.9426 11.4089 32.9426Z" fill="#C56225"/>
<path d="M5.92191 44.8436C6.69935 44.8436 7.47679 44.5448 8.06859 43.9464C9.25154 42.7497 9.25154 40.8028 8.06859 39.606C6.92185 38.4465 4.92131 38.4465 3.77589 39.606C2.59228 40.8028 2.59228 42.7497 3.77589 43.9464C4.36769 44.5448 5.14447 44.8436 5.92191 44.8436Z" fill="#C56225"/>
<path d="M3.22367 57.5194C4.00111 57.5194 4.77855 57.2206 5.37035 56.6222C6.5533 55.4254 6.5533 53.4785 5.37035 52.2818C4.22361 51.1223 2.22307 51.1223 1.07764 52.2818C-0.10596 53.4785 -0.10596 55.4254 1.07764 56.6222C1.66945 57.2206 2.44623 57.5194 3.22367 57.5194Z" fill="#393939"/>
<path d="M5.37029 69.5357C6.55389 68.3389 6.55389 66.3927 5.37029 65.1959C4.18668 64.0005 2.26119 64.0005 1.07758 65.1959C0.504211 65.775 0.188232 66.5458 0.188232 67.3658C0.188232 68.1858 0.504211 68.9566 1.07758 69.5357C1.65029 70.1161 2.41259 70.4356 3.22361 70.4356C4.03462 70.4356 4.79692 70.1161 5.37029 69.5357Z" fill="#393939"/>
<path d="M52.0767 116.762C50.8937 117.958 50.8937 119.906 52.0767 121.103C52.6685 121.7 53.4459 122 54.2227 122C55.0001 122 55.7776 121.7 56.3694 121.103C57.5523 119.906 57.5523 117.958 56.3694 116.762C55.1851 115.565 53.2596 115.566 52.0767 116.762Z" fill="#393939"/>
<path d="M64.8491 116.762C63.6655 117.958 63.6655 119.906 64.8491 121.103C65.4403 121.7 66.2184 122 66.9952 122C67.7719 122 68.55 121.7 69.1412 121.103C70.3248 119.906 70.3248 117.958 69.1412 116.762C67.9589 115.566 66.0314 115.566 64.8491 116.762Z" fill="#393939"/>
<path d="M77.8267 113.483C76.6431 114.681 76.6431 116.629 77.8267 117.824C78.4191 118.422 79.1959 118.721 79.974 118.721C80.7508 118.721 81.5289 118.422 82.12 117.824C83.3036 116.629 83.3036 114.681 82.12 113.483C80.9364 112.286 79.0103 112.289 77.8267 113.483Z" fill="#393939"/>
<path d="M88.9311 108.026C87.7489 109.223 87.7489 111.171 88.9311 112.367C89.5236 112.965 90.3004 113.265 91.0772 113.265C91.8553 113.265 92.6334 112.965 93.2245 112.367C94.4068 111.171 94.4068 109.223 93.2245 108.026C92.0383 106.83 90.1121 106.832 88.9311 108.026Z" fill="#C56225"/>
<path d="M99.2544 99.7262C98.0708 100.922 98.0708 102.869 99.2544 104.067C99.8469 104.665 100.624 104.965 101.4 104.965C102.179 104.965 102.957 104.665 103.548 104.067C104.731 102.869 104.731 100.922 103.548 99.7262C102.362 98.5295 100.438 98.5321 99.2544 99.7262Z" fill="#C56225"/>
<path d="M107.483 89.9564C106.299 91.1518 106.299 93.0994 107.483 94.2975C108.075 94.8952 108.852 95.1947 109.629 95.1947C110.407 95.1947 111.185 94.8952 111.776 94.2975C112.96 93.0994 112.96 91.1518 111.776 89.9564C110.59 88.7597 108.667 88.7623 107.483 89.9564Z" fill="#393939"/>
<path d="M112.97 78.0061C112.396 78.5852 112.08 79.356 112.08 80.176C112.08 80.996 112.396 81.7668 112.97 82.3459C113.543 82.9263 114.305 83.2458 115.116 83.2458C115.927 83.2458 116.689 82.9263 117.262 82.3459C117.836 81.7668 118.152 80.996 118.152 80.176C118.152 79.356 117.836 78.5852 117.262 78.0061C116.117 76.8453 114.116 76.8453 112.97 78.0061Z" fill="#393939"/>
<path d="M119.961 65.3783C118.776 64.1815 116.853 64.1789 115.668 65.3783C114.484 66.5751 114.484 68.5213 115.668 69.718C116.26 70.3171 117.037 70.6153 117.814 70.6153C118.592 70.6153 119.369 70.3171 119.961 69.718C121.145 68.5213 121.145 66.5751 119.961 65.3783Z" fill="#393939"/>
<path d="M115.668 52.2818C114.486 53.4786 114.486 55.4255 115.668 56.6222C116.26 57.2199 117.037 57.5188 117.814 57.5188C118.592 57.5188 119.369 57.2199 119.961 56.6222C121.144 55.4255 121.144 53.4786 119.961 52.2818C118.776 51.0844 116.853 51.0857 115.668 52.2818Z" fill="#393939"/>
<path d="M112.97 43.9464C113.561 44.5448 114.339 44.8436 115.116 44.8436C115.893 44.8436 116.671 44.5448 117.262 43.9464C117.836 43.3667 118.152 42.5959 118.152 41.7759C118.152 40.9565 117.836 40.1857 117.262 39.606C116.117 38.4465 114.116 38.4465 112.97 39.606C112.396 40.1857 112.08 40.9565 112.08 41.7759C112.08 42.5959 112.396 43.3667 112.97 43.9464Z" fill="#C56225"/>
<path d="M109.089 32.9406C109.867 32.9406 110.644 32.6418 111.236 32.0434C112.419 30.8466 112.419 28.8997 111.236 27.703C110.05 26.5049 108.124 26.5076 106.943 27.703C105.761 28.8997 105.761 30.8466 106.943 32.0434C107.535 32.6418 108.312 32.9406 109.089 32.9406Z" fill="#C56225"/>
<path d="M101.4 23.1416C102.179 23.1416 102.955 22.8427 103.548 22.2444C104.731 21.0483 104.731 19.1007 103.548 17.904C102.362 16.7079 100.438 16.7092 99.2544 17.904C98.0708 19.1007 98.0708 21.0483 99.2544 22.2444C99.8469 22.8427 100.624 23.1416 101.4 23.1416Z" fill="#393939"/>
<path d="M91.0767 14.4109C91.8548 14.4109 92.6316 14.112 93.224 13.5136C94.4076 12.3175 94.4076 10.37 93.224 9.17321C92.0378 7.97712 90.1143 7.97845 88.9307 9.17321C87.7471 10.37 87.7471 12.3175 88.9307 13.5136C89.5231 14.112 90.2999 14.4109 91.0767 14.4109Z" fill="#393939"/>
<path d="M79.3935 8.8637C80.1702 8.8637 80.9483 8.56484 81.5395 7.96646C82.1135 7.38672 82.4295 6.61595 82.4295 5.79592C82.4295 4.9759 82.1135 4.20513 81.5395 3.62605C80.3941 2.46657 78.3929 2.46657 77.2474 3.62605C76.6734 4.20513 76.3574 4.9759 76.3574 5.79592C76.3574 6.61595 76.6734 7.38672 77.2474 7.96646C77.8386 8.56484 78.6167 8.8637 79.3935 8.8637Z" fill="#393939"/>
<path d="M66.9955 6.13537C67.7723 6.13537 68.5504 5.83652 69.1415 5.23814C69.7156 4.65839 70.0315 3.88762 70.0315 3.0676C70.0315 2.24757 69.7156 1.4768 69.1415 0.89772C67.9961 -0.261765 65.9949 -0.261765 64.8495 0.89772C64.2755 1.4768 63.9595 2.24757 63.9595 3.0676C63.9595 3.88762 64.2755 4.65839 64.8495 5.23814C65.4406 5.83652 66.2187 6.13537 66.9955 6.13537Z" fill="#C56225"/>
<path d="M54.2226 6.13537C55.0001 6.13537 55.7775 5.83585 56.3693 5.23813C56.9427 4.65839 57.2587 3.88762 57.2587 3.0676C57.2587 2.24757 56.9427 1.4768 56.3693 0.897721C55.1857 -0.298371 53.2602 -0.299702 52.0766 0.897721C51.5032 1.4768 51.1873 2.24757 51.1873 3.0676C51.1873 3.88762 51.5032 4.65839 52.0766 5.23813C52.6684 5.83585 53.4458 6.13537 54.2226 6.13537Z" fill="#C56225"/>
<path d="M39.1977 114.034C38.6243 114.613 38.3083 115.384 38.3083 116.204C38.3083 117.024 38.6243 117.795 39.1977 118.374C39.7704 118.954 40.5327 119.274 41.3437 119.274C42.1547 119.274 42.917 118.954 43.4897 118.374C44.0631 117.795 44.3791 117.024 44.3791 116.204C44.3791 115.384 44.0631 114.613 43.4897 114.034C42.3443 112.873 40.3431 112.873 39.1977 114.034Z" fill="#393939"/>
<path d="M27.72 108.026C26.537 109.223 26.537 111.171 27.72 112.367C28.3118 112.965 29.0886 113.265 29.866 113.265C30.6434 113.265 31.4209 112.965 32.0127 112.367C33.195 111.171 33.195 109.223 32.0127 108.026C30.8291 106.831 28.9036 106.831 27.72 108.026Z" fill="#C56225"/>
<path d="M17.4473 100.223C16.2643 101.42 16.2643 103.367 17.4473 104.564C18.0391 105.162 18.8165 105.461 19.5933 105.461C20.3707 105.461 21.1482 105.162 21.74 104.564C22.9229 103.367 22.9229 101.42 21.74 100.223C20.5551 99.026 18.6296 99.0273 17.4473 100.223Z" fill="#C56225"/>
<path d="M9.26221 89.9564C8.07926 91.1518 8.07926 93.0994 9.26221 94.2975C9.85401 94.8952 10.6315 95.1947 11.4089 95.1947C12.1863 95.1947 12.9631 94.8952 13.5549 94.2975C14.1283 93.7171 14.4443 92.9463 14.4443 92.1263C14.4443 91.3063 14.1283 90.5355 13.5549 89.9564C12.3713 88.761 10.4458 88.761 9.26221 89.9564Z" fill="#393939"/>
<path d="M8.06853 78.0061C6.92179 76.8453 4.92125 76.8453 3.77582 78.0061C3.20245 78.5852 2.88647 79.356 2.88647 80.176C2.88647 80.996 3.20245 81.7668 3.77582 82.3459C4.34854 82.9263 5.11084 83.2458 5.92185 83.2458C6.73286 83.2458 7.49516 82.9263 8.06853 82.3459C9.25213 81.1491 9.25213 79.2029 8.06853 78.0061Z" fill="#393939"/>
</g>
<path d="M396.608 60.5919C389.648 60.5919 384.032 63.1359 383.936 69.7119C383.84 76.384 389.456 79.216 394.544 79.216C402.848 79.216 411.968 72.976 411.968 64.0479V60.5919H396.608ZM428 85.744H422.288C415.808 85.696 412.592 81.616 412.832 73.12L410.912 73.072C410.624 82.24 401.408 86.8 393.392 86.8C382.976 86.8 374.432 80.992 374.432 70.24C374.432 59.5359 383.36 53.5359 396.224 53.5359H408.608C411.488 53.5359 411.968 51.3279 411.968 49.0719C411.968 41.8239 405.296 39.5679 399.152 39.5679C392.24 39.5679 387.632 42.1599 387.104 48.2559H377.456C377.792 37.7919 387.344 31.7439 399.872 31.7439C412.64 31.7439 421.568 37.0239 421.568 48.4959V74.224C421.568 77.776 425.696 77.248 428 77.248V85.744Z" fill="#272727"/>
<path d="M360.984 85.6958V13.6956H370.584V85.6958H360.984Z" fill="#272727"/>
<path d="M344.946 85.6959C344.946 79.3598 344.61 79.1198 347.154 73.2638L345.378 72.4958C341.346 81.9039 336.546 86.7519 326.129 86.7519C314.465 86.7519 306.065 80.6558 306.065 65.5838V32.6077H315.665V65.3918C315.665 72.7838 320.177 78.3518 328.673 78.3518C338.706 78.3518 344.946 71.1518 344.946 63.7598V32.6077H354.546V85.6959H344.946Z" fill="#272727"/>
<path d="M292.857 45.7598C289.833 38.2718 290.745 36.5438 290.745 32.6078H300.345V86.8959C300.345 100.096 290.121 108.496 275.72 108.592C264.824 108.64 254.12 103.936 251.864 92.2719H261.656C263.288 97.792 269.624 100.72 276.056 100.72C284.073 100.672 289.833 95.728 290.649 88.2879C291.177 83.4399 291.033 77.1039 292.905 72.5919L291.129 71.8719C289.257 76.3839 286.089 82.4319 281.72 84.6399C278.984 86.0319 275.96 86.7999 272.888 86.7999C259.352 86.7999 250.232 75.5199 250.232 59.1519C250.232 42.8318 259.448 31.5518 272.888 31.5518C275.864 31.5518 278.936 32.2718 281.72 33.6638C286.089 35.8718 289.257 41.9198 291.081 46.4798L292.857 45.7598ZM260.12 59.0559C260.12 69.5199 265.64 78.5439 275.576 78.5439C285.465 78.5439 290.697 69.4719 290.697 59.0559C290.697 48.6399 285.513 39.6638 275.576 39.6638C265.688 39.6638 260.12 48.6399 260.12 59.0559Z" fill="#272727"/>
<path d="M198.481 85.696V32.6078H208.081C208.081 39.0878 208.513 38.9918 205.873 45.0399L207.649 45.8079C211.681 36.4478 216.625 31.5518 226.946 31.5518C238.562 31.5518 246.914 37.6478 246.914 52.7199V85.696H237.314V52.9119C237.314 45.5199 232.754 39.4718 224.305 39.4718C214.273 39.4718 208.081 47.6319 208.081 55.0239V85.696H198.481Z" fill="#272727"/>
<path d="M191.849 85.6959H182.249V32.6077H191.849V85.6959ZM180.761 19.4077C180.761 15.8077 183.257 13.4077 187.001 13.4077C190.937 13.4077 193.433 15.8077 193.433 19.4077C193.433 23.1997 190.937 25.5997 187.001 25.5997C183.257 25.5997 180.761 23.1997 180.761 19.4077Z" fill="#C46225"/>
<path d="M156.561 86.848C144.705 86.848 134.481 82 132.849 70.5759H141.969C143.841 77.0559 151.041 79.1679 157.089 79.1679C162.465 79.1679 169.617 77.7279 169.617 71.7279C169.617 66.3519 164.481 65.0079 158.913 63.7599L149.169 61.5519C141.777 59.8719 134.961 55.8399 134.961 47.2479C134.961 36.3518 144.705 31.5998 155.745 31.5998C166.641 31.5998 175.953 36.3518 177.057 47.4399H168.081C166.881 41.5358 161.841 39.2798 155.553 39.2798C150.561 39.2798 144.177 41.0078 144.177 46.7679C144.177 50.2719 146.961 52.0959 151.953 53.1519L162.369 55.4559C172.209 57.5679 178.881 61.5999 178.881 70.9599C178.881 82.096 169.185 86.848 156.561 86.848Z" fill="#272727"/>
<defs>
<clipPath id="clip0_4_465">
<rect width="120.849" height="122" fill="white"/>
</clipPath>
</defs>
</svg>
